<?xml version="1.0" encoding="utf-8"?>
<!-- Generator: Adobe Illustrator 26.0.2, SVG Export Plug-In . SVG Version: 6.00 Build 0)  -->
<svg version="1.1" id="Layer_1" xmlns="http://www.w3.org/2000/svg" xmlns:xlink="http://www.w3.org/1999/xlink" x="0px" y="0px"
	 viewBox="0 0 10 6" style="enable-background:new 0 0 10 6;" xml:space="preserve">
<style type="text/css">
	.st0{fill:#06013A;}
</style>
<path class="st0" d="M1.7,0.3c-0.4-0.4-1-0.4-1.4,0c-0.4,0.4-0.4,1,0,1.4L1.7,0.3z M9.7,1.7c0.4-0.4,0.4-1,0-1.4
	c-0.4-0.4-1-0.4-1.4,0L9.7,1.7z M5,5L4.3,5.7c0.4,0.4,1,0.4,1.4,0L5,5z M5.7,4.3l-4-4L0.3,1.7l4,4L5.7,4.3z M5.7,5.7l4-4L8.3,0.3
	l-4,4L5.7,5.7z"/>
</svg>
