<svg width="28" height="28" viewBox="0 0 28 28" fill="none" xmlns="http://www.w3.org/2000/svg">
<path fill-rule="evenodd" clip-rule="evenodd" d="M6.64223 6.67985C7.92199 5.40009 9.9969 5.40009 11.2767 6.67985L15.8585 11.2617C16.8349 12.238 16.8349 13.821 15.8585 14.7973L14.805 15.8508C14.4145 16.2413 14.4145 16.8745 14.805 17.265C15.1956 17.6555 15.8287 17.6555 16.2193 17.265L17.2728 16.2115C19.0301 14.4541 19.0301 11.6049 17.2728 9.84752L12.6909 5.26564C10.6301 3.20483 7.28883 3.20483 5.22801 5.26564C3.1672 7.32645 3.1672 10.6677 5.22802 12.7285L5.73207 13.2326C6.12259 13.6231 6.75576 13.6231 7.14628 13.2326C7.53681 12.842 7.53681 12.2089 7.14628 11.8183L6.64223 11.3143C5.36246 10.0345 5.36246 7.95962 6.64223 6.67985ZM13.1951 12.224C13.5856 11.8335 13.5856 11.2003 13.1951 10.8098C12.8046 10.4193 12.1714 10.4193 11.7809 10.8098L10.7274 11.8633C8.97 13.6207 8.97 16.4699 10.7274 18.2273L15.3092 22.8092C17.3701 24.87 20.7113 24.87 22.7721 22.8092C24.8329 20.7484 24.8329 17.4071 22.7721 15.3463L22.2681 14.8423C21.8775 14.4517 21.2444 14.4517 20.8538 14.8423C20.4633 15.2328 20.4633 15.8659 20.8538 16.2565L21.3579 16.7605C22.6377 18.0403 22.6377 20.1152 21.3579 21.395C20.0781 22.6747 18.0032 22.6747 16.7235 21.395L12.1416 16.8131C11.1653 15.8368 11.1653 14.2539 12.1416 13.2775L13.1951 12.224Z" fill="#9D2BD8"/>
</svg>
