<svg width="470" height="260" viewBox="0 0 470 260" fill="none" xmlns="http://www.w3.org/2000/svg">
<g clip-path="url(#clip0_1898_9575)">
<rect width="470" height="260" fill="#9D2BD8"/>
<path d="M321.888 160V68C321.888 63.5817 318.306 60 313.888 60H156.112C151.694 60 148.112 63.5817 148.112 68V160M321.888 160H148.112M321.888 160L339.307 187.746C342.652 193.074 338.822 200 332.532 200H137.468C131.178 200 127.348 193.074 130.693 187.746L148.112 160" stroke="white" stroke-width="2" stroke-linejoin="round"/>
<path d="M159 96L272.5 96M159 104H242.5M168.5 112H256.5M168.5 120H272.5" stroke="white" stroke-width="2" stroke-linecap="round" stroke-linejoin="round"/>
<path d="M257.58 60V61C258.133 61 258.58 60.5523 258.58 60H257.58ZM212.419 60H211.419C211.419 60.5523 211.867 61 212.419 61V60ZM213.123 31.2901C212.731 30.9011 212.098 30.9036 211.709 31.2957C211.32 31.6878 211.323 32.321 211.715 32.7099L213.123 31.2901ZM221.401 42.3188C221.793 42.7077 222.426 42.7052 222.815 42.3131C223.204 41.921 223.202 41.2879 222.81 40.8989L221.401 42.3188ZM258.284 32.7099C258.676 32.321 258.679 31.6878 258.29 31.2957C257.901 30.9036 257.268 30.9011 256.876 31.2901L258.284 32.7099ZM247.19 40.8988C246.797 41.2878 246.795 41.9209 247.184 42.313C247.573 42.7051 248.206 42.7076 248.598 42.3187L247.19 40.8988ZM213.419 60C213.419 48.1887 223.073 38.6 235 38.6V36.6C221.984 36.6 211.419 47.069 211.419 60H213.419ZM235 38.6C246.926 38.6 256.58 48.1887 256.58 60H258.58C258.58 47.069 248.015 36.6 235 36.6V38.6ZM212.419 61H257.58V59H212.419V61ZM211.715 32.7099L221.401 42.3188L222.81 40.8989L213.123 31.2901L211.715 32.7099ZM256.876 31.2901L247.19 40.8988L248.598 42.3187L258.284 32.7099L256.876 31.2901Z" fill="white"/>
<circle cx="223.934" cy="52.5485" r="1.12903" stroke="white" stroke-width="2" stroke-linejoin="round"/>
<circle cx="246.514" cy="52.5485" r="1.12903" stroke="white" stroke-width="2" stroke-linejoin="round"/>
<path d="M164 70L159 75L164 80" stroke="white" stroke-width="2" stroke-linecap="round" stroke-linejoin="round"/>
<path d="M169 80L174 75L169 70" stroke="white" stroke-width="2" stroke-linecap="round" stroke-linejoin="round"/>
<path d="M164 138L159 143L164 148" stroke="white" stroke-width="2" stroke-linecap="round" stroke-linejoin="round"/>
<path d="M175 148L180 143L175 138" stroke="white" stroke-width="2" stroke-linecap="round" stroke-linejoin="round"/>
<path d="M168 150L171 136" stroke="white" stroke-width="2" stroke-linecap="round" stroke-linejoin="round"/>
<path d="M286.556 70H280.444C279.094 70 278 71.1193 278 72.5C278 73.8807 279.094 75 280.444 75H284.111C285.461 75 286.556 76.1193 286.556 77.5C286.556 78.8807 285.461 80 284.111 80H278M302.444 70V75M302.444 75V80M302.444 75C307.333 75 311 75 311 70M302.444 75C307.333 75 311 75 311 80M293.889 70H290.222V80H293.889C296.589 80 298.778 77.7614 298.778 75C298.778 72.2386 296.589 70 293.889 70Z" stroke="white" stroke-width="2" stroke-linecap="round" stroke-linejoin="round"/>
<path d="M425 34L433.66 39V49L425 54L416.34 49V39L425 34Z" stroke="white" stroke-width="2" stroke-linejoin="round"/>
<path d="M61.5 138L76.6554 146.75V164.25L61.5 173L46.3446 164.25V146.75L61.5 138Z" stroke="white" stroke-width="2" stroke-linejoin="round"/>
<circle cx="470" cy="260" r="90" stroke="white" stroke-width="2" stroke-linecap="round" stroke-linejoin="round" stroke-dasharray="4 4"/>
<circle cx="79" r="49" stroke="white" stroke-width="2" stroke-linecap="round" stroke-linejoin="round"/>
<circle cx="385" cy="108" r="5" stroke="white" stroke-width="2" stroke-linecap="round" stroke-linejoin="round"/>
<path d="M63 173C63 172.448 62.5523 172 62 172C61.4477 172 61 172.448 61 173L63 173ZM61.2929 216.707C61.6834 217.098 62.3166 217.098 62.7071 216.707L69.0711 210.343C69.4616 209.953 69.4616 209.319 69.0711 208.929C68.6805 208.538 68.0474 208.538 67.6569 208.929L62 214.586L56.3432 208.929C55.9526 208.538 55.3195 208.538 54.9289 208.929C54.5384 209.319 54.5384 209.953 54.9289 210.343L61.2929 216.707ZM61 175.15C61 175.702 61.4477 176.15 62 176.15C62.5523 176.15 63 175.702 63 175.15L61 175.15ZM63 179.45C63 178.898 62.5523 178.45 62 178.45C61.4477 178.45 61 178.898 61 179.45L63 179.45ZM61 183.75C61 184.302 61.4477 184.75 62 184.75C62.5523 184.75 63 184.302 63 183.75L61 183.75ZM63 188.05C63 187.498 62.5523 187.05 62 187.05C61.4477 187.05 61 187.498 61 188.05L63 188.05ZM61 192.35C61 192.902 61.4477 193.35 62 193.35C62.5523 193.35 63 192.902 63 192.35L61 192.35ZM63 196.65C63 196.098 62.5523 195.65 62 195.65C61.4477 195.65 61 196.098 61 196.65L63 196.65ZM61 200.95C61 201.502 61.4477 201.95 62 201.95C62.5523 201.95 63 201.502 63 200.95L61 200.95ZM63 205.25C63 204.698 62.5523 204.25 62 204.25C61.4477 204.25 61 204.698 61 205.25L63 205.25ZM61 209.55C61 210.102 61.4477 210.55 62 210.55C62.5523 210.55 63 210.102 63 209.55L61 209.55ZM63 213.85C63 213.298 62.5523 212.85 62 212.85C61.4477 212.85 61 213.298 61 213.85L63 213.85ZM61 173L61 175.15L63 175.15L63 173L61 173ZM61 179.45L61 183.75L63 183.75L63 179.45L61 179.45ZM61 188.05L61 192.35L63 192.35L63 188.05L61 188.05ZM61 196.65L61 200.95L63 200.95L63 196.65L61 196.65ZM61 205.25L61 209.55L63 209.55L63 205.25L61 205.25ZM61 213.85L61 216L63 216L63 213.85L61 213.85Z" fill="white"/>
</g>
<defs>
<clipPath id="clip0_1898_9575">
<rect width="470" height="260" fill="white"/>
</clipPath>
</defs>
</svg>
