<svg width="16" height="18" viewBox="0 0 16 18" fill="none" xmlns="http://www.w3.org/2000/svg">
<path d="M5 4C4.44772 4 4 4.44772 4 5C4 5.55228 4.44772 6 5 6V4ZM10 6C10.5523 6 11 5.55228 11 5C11 4.44772 10.5523 4 10 4V6ZM5 8C4.44772 8 4 8.44772 4 9C4 9.55229 4.44772 10 5 10V8ZM8 10C8.55228 10 9 9.55229 9 9C9 8.44772 8.55228 8 8 8V10ZM5 12C4.44772 12 4 12.4477 4 13C4 13.5523 4.44772 14 5 14V12ZM6 14C6.55228 14 7 13.5523 7 13C7 12.4477 6.55228 12 6 12V14ZM14 16H2V18H14V16ZM2 16V2H0V16H2ZM2 2H14V0H2V2ZM14 2V16H16V2H14ZM14 2H16C16 0.89543 15.1046 0 14 0V2ZM2 2V0C0.895431 0 0 0.895431 0 2H2ZM2 16H2H0C0 17.1046 0.895432 18 2 18V16ZM14 18C15.1046 18 16 17.1046 16 16H14V18ZM5 6H10V4H5V6ZM5 10H8V8H5V10ZM5 14H6V12H5V14Z" fill="currentColor"/>
</svg>
