<svg width="470" height="260" viewBox="0 0 470 260" fill="none" xmlns="http://www.w3.org/2000/svg">
<g clip-path="url(#clip0_1898_9593)">
<rect width="470" height="260" fill="#2B4EFF"/>
<path d="M171.502 94.9135V94.9135L171.492 94.9135C170.147 94.9204 169.282 95.2447 168.577 95.5379C168.536 95.5551 168.496 95.572 168.457 95.5884C167.846 95.8434 167.471 96 166.896 96H166.857C166.472 96 165.842 95.772 165.037 95.1628C164.261 94.5752 163.434 93.7161 162.674 92.6715C161.143 90.5658 160 87.8664 160 85.3931C160 79.9062 163.786 77.7788 166.034 77.7778C166.854 77.7779 167.636 78.0485 168.545 78.3926C168.601 78.4139 168.658 78.4357 168.716 78.4578C169.522 78.7651 170.498 79.1371 171.497 79.1371C172.497 79.1371 173.473 78.7651 174.279 78.4578C174.337 78.4357 174.394 78.4139 174.45 78.3926C175.359 78.0485 176.141 77.7778 176.961 77.7778C178.3 77.7778 180.184 78.5356 181.489 80.3089C181.485 80.3165 181.48 80.3251 181.474 80.3345C181.457 80.3604 181.434 80.3859 181.407 80.4073C179.979 81.5374 179.047 83.2756 179.047 85.2477C179.047 87.3105 180.065 89.1175 181.606 90.2405C181.632 90.2597 181.655 90.2824 181.672 90.3059C181.689 90.3282 181.698 90.3474 181.703 90.3601C180.906 91.9876 179.835 93.4374 178.761 94.4682C178.222 94.9857 177.7 95.3805 177.229 95.6409C176.75 95.9063 176.384 96 176.138 96H176.099C175.524 96 175.15 95.8435 174.539 95.5885C174.5 95.572 174.459 95.5552 174.418 95.5379C173.713 95.2447 172.847 94.9204 171.502 94.9135ZM172.14 75.6508C172.344 74.7889 172.756 73.9395 173.278 73.4239C173.94 72.7767 174.881 72.2997 175.925 72.1014C175.792 72.9798 175.476 73.6359 174.943 74.1934C174.315 74.8471 173.258 75.4088 172.14 75.6508Z" stroke="white" stroke-width="2" stroke-linejoin="round"/>
<path d="M201.556 79H195.444C194.094 79 193 80.1193 193 81.5C193 82.8807 194.094 84 195.444 84H199.111C200.461 84 201.556 85.1193 201.556 86.5C201.556 87.8807 200.461 89 199.111 89H193M217.444 79V84M217.444 84V89M217.444 84C222.333 84 226 84 226 79M217.444 84C222.333 84 226 84 226 89M208.889 79H205.222V89H208.889C211.589 89 213.778 86.7614 213.778 84C213.778 81.2386 211.589 79 208.889 79Z" stroke="white" stroke-width="2" stroke-linecap="round" stroke-linejoin="round"/>
<path d="M321.888 160V68C321.888 63.5817 318.306 60 313.888 60H156.112C151.694 60 148.112 63.5817 148.112 68V160M321.888 160H148.112M321.888 160L339.307 187.746C342.652 193.074 338.822 200 332.532 200H137.468C131.178 200 127.348 193.074 130.693 187.746L148.112 160" stroke="white" stroke-width="2" stroke-linejoin="round"/>
<path d="M159 112L272.5 112M159 120H242.5M168.5 128H256.5M168.5 136H272.5" stroke="white" stroke-width="2" stroke-linecap="round" stroke-linejoin="round"/>
<path d="M54.6667 139.333L45 149L54.6667 158.666" stroke="white" stroke-width="2" stroke-linecap="round" stroke-linejoin="round"/>
<path d="M64.3333 158.667L74 149L64.3333 139.333" stroke="white" stroke-width="2" stroke-linecap="round" stroke-linejoin="round"/>
<path d="M388.786 49.7144L374.5 64.0001L388.786 78.2858" stroke="white" stroke-width="2" stroke-linecap="round" stroke-linejoin="round"/>
<path d="M420.214 78.2856L434.5 63.9999L420.214 49.7142" stroke="white" stroke-width="2" stroke-linecap="round" stroke-linejoin="round"/>
<path d="M400.214 84L408.786 44" stroke="white" stroke-width="2" stroke-linecap="round" stroke-linejoin="round"/>
<path d="M454 188L516.354 224V296L454 332L391.646 296V224L454 188Z" stroke="white" stroke-width="2" stroke-linejoin="round"/>
<circle cx="32" cy="-9" r="90" stroke="white" stroke-width="2" stroke-linecap="round" stroke-linejoin="round" stroke-dasharray="4 4"/>
<path d="M234 260C234 260.552 234.448 261 235 261C235.552 261 236 260.552 236 260L234 260ZM235.707 232.293C235.317 231.902 234.683 231.902 234.293 232.293L227.929 238.657C227.538 239.047 227.538 239.681 227.929 240.071C228.319 240.462 228.953 240.462 229.343 240.071L235 234.414L240.657 240.071C241.047 240.462 241.681 240.462 242.071 240.071C242.462 239.681 242.462 239.047 242.071 238.657L235.707 232.293ZM236 257.75C236 257.198 235.552 256.75 235 256.75C234.448 256.75 234 257.198 234 257.75L236 257.75ZM234 253.25C234 253.802 234.448 254.25 235 254.25C235.552 254.25 236 253.802 236 253.25L234 253.25ZM236 248.75C236 248.198 235.552 247.75 235 247.75C234.448 247.75 234 248.198 234 248.75L236 248.75ZM234 244.25C234 244.802 234.448 245.25 235 245.25C235.552 245.25 236 244.802 236 244.25L234 244.25ZM236 239.75C236 239.198 235.552 238.75 235 238.75C234.448 238.75 234 239.198 234 239.75L236 239.75ZM234 235.25C234 235.802 234.448 236.25 235 236.25C235.552 236.25 236 235.802 236 235.25L234 235.25ZM236 260L236 257.75L234 257.75L234 260L236 260ZM236 253.25L236 248.75L234 248.75L234 253.25L236 253.25ZM236 244.25L236 239.75L234 239.75L234 244.25L236 244.25ZM236 235.25L236 233L234 233L234 235.25L236 235.25Z" fill="white"/>
<circle cx="384" cy="136" r="5" stroke="white" stroke-width="2" stroke-linecap="round" stroke-linejoin="round"/>
</g>
<defs>
<clipPath id="clip0_1898_9593">
<rect width="470" height="260" fill="white"/>
</clipPath>
</defs>
</svg>
