<?xml version="1.0" encoding="utf-8"?>
<!-- Generator: Adobe Illustrator 25.1.0, SVG Export Plug-In . SVG Version: 6.00 Build 0)  -->
<svg version="1.1" id="Layer_1" xmlns:xodm="http://www.corel.com/coreldraw/odm/2003"
	 xmlns="http://www.w3.org/2000/svg" xmlns:xlink="http://www.w3.org/1999/xlink" x="0px" y="0px" width="2370.1px"
	 height="669.3px" viewBox="0 0 2370.1 669.3" style="enable-background:new 0 0 2370.1 669.3;" xml:space="preserve">
<style type="text/css">
	.st0{fill-rule:evenodd;clip-rule:evenodd;fill:#1B1547;}
	.st1{fill:#1B1547;}
</style>
<g>
	<path class="st0" d="M315.7,476.4l-4.5-1.9c-31.1-13.1-39.3-25.6-44.6-42.6c-3.7-11.7-6.9-21.8-10.5-30.8
		c-16.5-65-94.1-109.9-158.6-89c-12.8,4.1-20.6,13.8-8.1,23.6c24.3,19,48.7,38,73,57.1c17.9,27.2-41.9,97.8-69,88.3
		c-24.3-19-48.5-37.9-72.8-56.9C9.4,415.5-0.1,424.9,0,437.6v0c0.6,69.3,55.2,131.2,125.5,132.8c8.4,0.2,16.7-0.5,24.6-2.1
		c0.1,0,0.3-0.1,0.4-0.1l0,0c28.9-5.3,61.4-21.4,85.8-11.1l178,74.9c-10.8-11.1-19.9-23.6-26.9-37.1L315.7,476.4z"/>
	<g>
		<polygon class="st0" points="258,98 258,98 258,98 		"/>
		<path class="st0" d="M369.9,524V192l-30.9-51.2v0L258,98l0,0l-53.7-28.4l0,0l-19.7-10.4l0,20.9c-0.1,0.5-0.1,1-0.1,1.4l0.1,60.8
			l0,0l0.1,91.7l0,0l186.4,309C370.3,536.7,369.9,530.4,369.9,524z M244.2,106.8l77.8,41.2l-123.3,74.4l-0.1-88L244.2,106.8z"/>
	</g>
	<path class="st0" d="M665.6,0H402.2c-10.6,0-19.3,8.4-19.3,18.6V524c0,80,68.1,145.3,151,145.3c83,0,151-65.4,151-145.3V18.6
		C684.8,8.4,676.1,0,665.6,0z M533.9,616.6c-14.8,0-26.8-12-26.8-26.8c0-14.8,12-26.8,26.8-26.8c14.8,0,26.8,12,26.8,26.8
		C560.7,604.6,548.7,616.6,533.9,616.6z"/>
	<g>
		<g>
			<g>
				<path class="st1" d="M2196.6,558c-37.8,0.2-71.5-7.2-101.8-25.8c-59.5-36.7-82.4-91.9-76.5-159.7c7.6-86.8,72.3-137.3,151-145.5
					c32.5-3.4,64.5-1,95.2,10.3c63.1,23.2,98.1,69.1,104.6,135.8c6.7,69.3-21.3,134.7-89.3,167
					C2252.8,552.8,2224.1,558.2,2196.6,558z M2135,389.7c0,18.6,3.2,31.4,7.9,45.4c7.8,23.3,25.8,35.3,49.6,35.7
					c23.5,0.4,42.5-11.5,51.1-34c11.6-30,11.7-60.6,0.2-90.6c-8.1-21.3-24.6-32.3-47.7-33c-23.6-0.7-42.1,8.7-51.1,30.6
					C2139.1,358.6,2135,374.8,2135,389.7z"/>
				<path class="st1" d="M906.2,432.8c3.6,1.6,6.9,3.3,10.2,4.6c22.1,8.4,43.7,19.1,66.6,24.4c42.1,9.9,65.6-10.3,65.7-53.8
					c0.2-85.6,0.1-171.3,0.1-256.9c0-3.7,0-7.4,0-11.7c39,0,77.2,0,116.3,0c0.2,3,0.4,6,0.4,9c-0.1,83.5-0.2,166.9-0.4,250.4
					c-0.1,25.8-3.4,51.1-13.6,75.1c-19.7,46.5-56.6,70.7-104.9,79.5c-46.9,8.5-92.1,2.1-135.4-17.6c-2.7-1.2-5.9-5.1-5.9-7.7
					c-0.4-30.6-0.2-61.3-0.2-91.9C905.1,435.4,905.6,434.6,906.2,432.8z"/>
			</g>
			<path class="st1" d="M1443.4,241.5c-0.3,0-0.5,0.1-0.8,0.1c0,5.2,0,8.9,0,12.6c0,49.1,0,98.2,0,147.3c0,17.3-3.3,33.6-14.4,47.5
				c-12.3,15.4-31.4,21-50.7,15.2c-17-5.2-26.3-18.3-27.8-39.2c-0.3-4-0.2-8.1-0.2-12.2c0-57.1,0-114.2,0-171.3H1235
				c-0.2,2.9-0.5,4.8-0.5,6.6c0,67.2-0.3,134.5,0.1,201.7c0.3,48.1,28.1,87.5,70.8,101.3c39.8,12.9,105.6,7.1,139.4-42.7
				c0.6-0.9,1.6-1.7,4.2-4.5c0,16,0,29.3,0,42.9c36.3,0,72,0,107.6,0c0-102.1,0-203.3,0-305.4H1443.4z"/>
			<path class="st1" d="M1841.1,128.3c0,45,0,89,0,133.3c-13-8.1-24.3-16.8-36.9-22.7c-62.4-29.4-136.3-1.9-166.4,64.5
				c-28.9,63.7-27.3,129.1,5.1,190.9c45.9,87.5,154.9,75.4,197.6,16.5c1.4-2,3.3-3.7,6.6-7.4c0,16.4,0,30,0,43.6
				c36.5,0,72.3,0,107.9,0c0-139.8,0-278.9,0-418.7H1841.1z M1840.6,418.8c-5.6,32.3-28.3,50-58.3,47c-17.5-1.7-30.2-11-36.8-26.7
				c-12.8-30.3-14.1-61.6-1-92.1c12.9-30.2,42.3-40.3,73.5-27c17.9,7.6,22.6,15.6,25.2,19.8c0.7,34.2,0.7,28.6,0.7,34.2
				c0.3,0-0.3,0,0,0C1842.9,389,1843.2,404.2,1840.6,418.8z"/>
		</g>
	</g>
</g>
</svg>
