<?xml version="1.0" encoding="utf-8"?>
<!-- Generator: Adobe Illustrator 25.1.0, SVG Export Plug-In . SVG Version: 6.00 Build 0)  -->
<svg version="1.1" id="Layer_1" xmlns:xodm="http://www.corel.com/coreldraw/odm/2003"
	 xmlns="http://www.w3.org/2000/svg" xmlns:xlink="http://www.w3.org/1999/xlink" x="0px" y="0px" width="2371.6px"
	 height="669.3px" viewBox="0 0 2371.6 669.3" style="enable-background:new 0 0 2371.6 669.3;" xml:space="preserve">
<style type="text/css">
	.st0{fill-rule:evenodd;clip-rule:evenodd;fill:url(#SVGID_1_);}
	.st1{fill-rule:evenodd;clip-rule:evenodd;fill:url(#SVGID_2_);filter:url(#Adobe_OpacityMaskFilter);}
	.st2{mask:url(#id0_1_);fill-rule:evenodd;clip-rule:evenodd;fill:#657CC9;}
	.st3{fill-rule:evenodd;clip-rule:evenodd;fill:url(#SVGID_3_);}
	.st4{fill-rule:evenodd;clip-rule:evenodd;fill:url(#SVGID_4_);}
	.st5{clip-path:url(#SVGID_6_);}
	.st6{fill-rule:evenodd;clip-rule:evenodd;fill:url(#SVGID_7_);filter:url(#Adobe_OpacityMaskFilter_1_);}
	.st7{mask:url(#id3_1_);fill-rule:evenodd;clip-rule:evenodd;fill:#D4DEEC;}
	.st8{fill-rule:evenodd;clip-rule:evenodd;fill:url(#SVGID_8_);filter:url(#Adobe_OpacityMaskFilter_2_);}
	.st9{mask:url(#id5_1_);fill-rule:evenodd;clip-rule:evenodd;fill:#D4DEEC;}
	.st10{fill-rule:evenodd;clip-rule:evenodd;fill:#484788;fill-opacity:7.843000e-03;}
	.st11{fill-rule:evenodd;clip-rule:evenodd;fill:#484788;fill-opacity:1.568600e-02;}
	.st12{fill-rule:evenodd;clip-rule:evenodd;fill:#484788;fill-opacity:1.960800e-02;}
	.st13{fill-rule:evenodd;clip-rule:evenodd;fill:#484788;fill-opacity:2.745100e-02;}
	.st14{fill-rule:evenodd;clip-rule:evenodd;fill:#484788;fill-opacity:3.529400e-02;}
	.st15{fill-rule:evenodd;clip-rule:evenodd;fill:#484788;fill-opacity:4.313700e-02;}
	.st16{fill-rule:evenodd;clip-rule:evenodd;fill:#484788;fill-opacity:5.098000e-02;}
	.st17{fill-rule:evenodd;clip-rule:evenodd;fill:#484788;fill-opacity:5.882400e-02;}
	.st18{fill-rule:evenodd;clip-rule:evenodd;fill:#484788;fill-opacity:6.274500e-02;}
	.st19{fill-rule:evenodd;clip-rule:evenodd;fill:#484788;fill-opacity:7.058800e-02;}
	.st20{fill-rule:evenodd;clip-rule:evenodd;fill:#484788;fill-opacity:7.843100e-02;}
	.st21{fill-rule:evenodd;clip-rule:evenodd;fill:#484788;fill-opacity:8.627500e-02;}
	.st22{fill-rule:evenodd;clip-rule:evenodd;fill:#484788;fill-opacity:9.411800e-02;}
	.st23{fill-rule:evenodd;clip-rule:evenodd;fill:#484788;fill-opacity:0.102;}
	.st24{fill-rule:evenodd;clip-rule:evenodd;fill:#484788;fill-opacity:0.1059;}
	.st25{fill-rule:evenodd;clip-rule:evenodd;fill:#484788;fill-opacity:0.1137;}
	.st26{fill-rule:evenodd;clip-rule:evenodd;fill:#484788;fill-opacity:0.1216;}
	.st27{fill-rule:evenodd;clip-rule:evenodd;fill:#484788;fill-opacity:0.1294;}
	.st28{fill-rule:evenodd;clip-rule:evenodd;fill:#484788;fill-opacity:0.1373;}
	.st29{fill-rule:evenodd;clip-rule:evenodd;fill:#484788;fill-opacity:0.1412;}
	.st30{fill-rule:evenodd;clip-rule:evenodd;fill:#5A5994;fill-opacity:7.843000e-03;}
	.st31{fill-rule:evenodd;clip-rule:evenodd;fill:#5A5994;fill-opacity:1.568600e-02;}
	.st32{fill-rule:evenodd;clip-rule:evenodd;fill:#5A5994;fill-opacity:1.960800e-02;}
	.st33{fill-rule:evenodd;clip-rule:evenodd;fill:#5A5994;fill-opacity:2.745100e-02;}
	.st34{fill-rule:evenodd;clip-rule:evenodd;fill:#5A5994;fill-opacity:3.529400e-02;}
	.st35{fill-rule:evenodd;clip-rule:evenodd;fill:#5A5994;fill-opacity:4.313700e-02;}
	.st36{fill-rule:evenodd;clip-rule:evenodd;fill:#5A5994;fill-opacity:5.098000e-02;}
	.st37{fill-rule:evenodd;clip-rule:evenodd;fill:#5A5994;fill-opacity:5.882400e-02;}
	.st38{fill-rule:evenodd;clip-rule:evenodd;fill:#5A5994;fill-opacity:6.274500e-02;}
	.st39{fill-rule:evenodd;clip-rule:evenodd;fill:#5A5994;fill-opacity:7.058800e-02;}
	.st40{fill-rule:evenodd;clip-rule:evenodd;fill:#5A5994;fill-opacity:7.843100e-02;}
	.st41{fill-rule:evenodd;clip-rule:evenodd;fill:#5A5994;fill-opacity:8.627500e-02;}
	.st42{fill-rule:evenodd;clip-rule:evenodd;fill:#5A5994;fill-opacity:9.411800e-02;}
	.st43{fill-rule:evenodd;clip-rule:evenodd;fill:#5A5994;fill-opacity:0.102;}
	.st44{fill-rule:evenodd;clip-rule:evenodd;fill:#5A5994;fill-opacity:0.1059;}
	.st45{fill-rule:evenodd;clip-rule:evenodd;fill:#5A5994;fill-opacity:0.1137;}
	.st46{fill-rule:evenodd;clip-rule:evenodd;fill:#5A5994;fill-opacity:0.1216;}
	.st47{fill-rule:evenodd;clip-rule:evenodd;fill:#5A5994;fill-opacity:0.1294;}
	.st48{fill-rule:evenodd;clip-rule:evenodd;fill:#5A5994;fill-opacity:0.1373;}
	.st49{fill-rule:evenodd;clip-rule:evenodd;fill:#5A5994;fill-opacity:0.1412;}
	.st50{fill:none;}
	.st51{fill-rule:evenodd;clip-rule:evenodd;fill:url(#SVGID_9_);filter:url(#Adobe_OpacityMaskFilter_3_);}
	.st52{mask:url(#id7_1_);fill-rule:evenodd;clip-rule:evenodd;fill:#3169DE;}
	.st53{fill-rule:evenodd;clip-rule:evenodd;fill:url(#SVGID_10_);}
	.st54{fill-rule:evenodd;clip-rule:evenodd;fill:url(#SVGID_11_);filter:url(#Adobe_OpacityMaskFilter_4_);}
	.st55{mask:url(#id9_1_);fill-rule:evenodd;clip-rule:evenodd;fill:#000066;}
	.st56{fill-rule:evenodd;clip-rule:evenodd;fill:url(#SVGID_12_);}
	.st57{clip-path:url(#SVGID_14_);}
	.st58{fill-rule:evenodd;clip-rule:evenodd;fill:#FFFFFF;fill-opacity:0;}
	.st59{fill-rule:evenodd;clip-rule:evenodd;fill:#FFFFFF;fill-opacity:3.922000e-03;}
	.st60{fill-rule:evenodd;clip-rule:evenodd;fill:#FFFFFF;fill-opacity:7.843000e-03;}
	.st61{fill-rule:evenodd;clip-rule:evenodd;fill:#FFFFFF;fill-opacity:1.176500e-02;}
	.st62{fill-rule:evenodd;clip-rule:evenodd;fill:#FFFFFF;fill-opacity:1.568600e-02;}
	.st63{fill-rule:evenodd;clip-rule:evenodd;fill:#FFFFFF;fill-opacity:1.960800e-02;}
	.st64{fill-rule:evenodd;clip-rule:evenodd;fill:#FFFFFF;fill-opacity:2.352900e-02;}
	.st65{fill-rule:evenodd;clip-rule:evenodd;fill:#FFFFFF;fill-opacity:2.745100e-02;}
	.st66{fill-rule:evenodd;clip-rule:evenodd;fill:#FFFFFF;fill-opacity:3.137300e-02;}
	.st67{fill-rule:evenodd;clip-rule:evenodd;fill:#FFFFFF;fill-opacity:3.529400e-02;}
	.st68{fill-rule:evenodd;clip-rule:evenodd;fill:#FFFFFF;fill-opacity:3.921600e-02;}
	.st69{fill-rule:evenodd;clip-rule:evenodd;fill:#FFFFFF;fill-opacity:4.313700e-02;}
	.st70{fill-rule:evenodd;clip-rule:evenodd;fill:#FFFFFF;fill-opacity:4.705900e-02;}
	.st71{fill-rule:evenodd;clip-rule:evenodd;fill:#FFFFFF;fill-opacity:5.098000e-02;}
	.st72{fill-rule:evenodd;clip-rule:evenodd;fill:url(#SVGID_15_);filter:url(#Adobe_OpacityMaskFilter_5_);}
	.st73{mask:url(#id12_1_);fill-rule:evenodd;clip-rule:evenodd;fill:#003399;}
	.st74{fill-rule:evenodd;clip-rule:evenodd;fill:url(#SVGID_16_);}
	.st75{clip-path:url(#SVGID_18_);}
	.st76{fill-rule:evenodd;clip-rule:evenodd;fill:#00CCFF;fill-opacity:0;}
	.st77{fill-rule:evenodd;clip-rule:evenodd;fill:#00CCFF;fill-opacity:3.922000e-03;}
	.st78{fill-rule:evenodd;clip-rule:evenodd;fill:#00CCFF;fill-opacity:7.843000e-03;}
	.st79{fill-rule:evenodd;clip-rule:evenodd;fill:#00CCFF;fill-opacity:1.176500e-02;}
	.st80{fill-rule:evenodd;clip-rule:evenodd;fill:#00CCFF;fill-opacity:1.568600e-02;}
	.st81{fill-rule:evenodd;clip-rule:evenodd;fill:#00CCFF;fill-opacity:1.960800e-02;}
	.st82{fill-rule:evenodd;clip-rule:evenodd;fill:#00CCFF;fill-opacity:2.352900e-02;}
	.st83{fill-rule:evenodd;clip-rule:evenodd;fill:#00CCFF;fill-opacity:2.745100e-02;}
	.st84{fill-rule:evenodd;clip-rule:evenodd;fill:#00CCFF;fill-opacity:3.137300e-02;}
	.st85{fill-rule:evenodd;clip-rule:evenodd;fill:#00CCFF;fill-opacity:3.529400e-02;}
	.st86{fill-rule:evenodd;clip-rule:evenodd;fill:#00CCFF;fill-opacity:3.921600e-02;}
	.st87{fill-rule:evenodd;clip-rule:evenodd;fill:#00CCFF;fill-opacity:4.313700e-02;}
	.st88{fill-rule:evenodd;clip-rule:evenodd;fill:#00CCFF;fill-opacity:4.705900e-02;}
	.st89{fill-rule:evenodd;clip-rule:evenodd;fill:#00CCFF;fill-opacity:5.098000e-02;}
	.st90{fill-rule:evenodd;clip-rule:evenodd;fill:url(#SVGID_19_);filter:url(#Adobe_OpacityMaskFilter_6_);}
	.st91{mask:url(#id15_1_);fill-rule:evenodd;clip-rule:evenodd;fill:#000066;}
	.st92{fill-rule:evenodd;clip-rule:evenodd;fill:url(#SVGID_20_);}
	.st93{clip-path:url(#SVGID_22_);}
	.st94{fill-rule:evenodd;clip-rule:evenodd;fill:#CCCCCC;fill-opacity:0;}
	.st95{fill-rule:evenodd;clip-rule:evenodd;fill:#CCCCCC;fill-opacity:3.922000e-03;}
	.st96{fill-rule:evenodd;clip-rule:evenodd;fill:#CCCCCC;fill-opacity:7.843000e-03;}
	.st97{fill-rule:evenodd;clip-rule:evenodd;fill:#CCCCCC;fill-opacity:1.176500e-02;}
	.st98{fill-rule:evenodd;clip-rule:evenodd;fill:#CCCCCC;fill-opacity:1.568600e-02;}
	.st99{fill-rule:evenodd;clip-rule:evenodd;fill:#CCCCCC;fill-opacity:1.960800e-02;}
	.st100{fill-rule:evenodd;clip-rule:evenodd;fill:#CCCCCC;fill-opacity:2.352900e-02;}
	.st101{fill-rule:evenodd;clip-rule:evenodd;fill:#CCCCCC;fill-opacity:2.745100e-02;}
	.st102{fill-rule:evenodd;clip-rule:evenodd;fill:#CCCCCC;fill-opacity:3.137300e-02;}
	.st103{fill-rule:evenodd;clip-rule:evenodd;fill:#CCCCCC;fill-opacity:3.529400e-02;}
	.st104{fill-rule:evenodd;clip-rule:evenodd;fill:#CCCCCC;fill-opacity:3.921600e-02;}
	.st105{fill-rule:evenodd;clip-rule:evenodd;fill:#CCCCCC;fill-opacity:4.313700e-02;}
	.st106{fill-rule:evenodd;clip-rule:evenodd;fill:#CCCCCC;fill-opacity:4.705900e-02;}
	.st107{fill-rule:evenodd;clip-rule:evenodd;fill:#CCCCCC;fill-opacity:5.098000e-02;}
	.st108{fill-rule:evenodd;clip-rule:evenodd;fill:url(#SVGID_23_);filter:url(#Adobe_OpacityMaskFilter_7_);}
	.st109{mask:url(#id18_1_);fill:#FFFFFF;stroke:#4FFEF0;stroke-width:0.2175;stroke-miterlimit:14.2485;}
	.st110{fill-rule:evenodd;clip-rule:evenodd;fill:url(#SVGID_24_);filter:url(#Adobe_OpacityMaskFilter_8_);}
	.st111{mask:url(#id20_1_);fill-rule:evenodd;clip-rule:evenodd;fill:#94B0FF;}
	.st112{fill-rule:evenodd;clip-rule:evenodd;fill:url(#SVGID_25_);}
	.st113{fill-rule:evenodd;clip-rule:evenodd;fill:url(#SVGID_26_);}
	.st114{fill-rule:evenodd;clip-rule:evenodd;fill:url(#SVGID_27_);}
	.st115{fill-rule:evenodd;clip-rule:evenodd;fill:url(#SVGID_28_);}
	.st116{fill-rule:evenodd;clip-rule:evenodd;fill:url(#SVGID_29_);}
	.st117{fill-rule:evenodd;clip-rule:evenodd;fill:url(#SVGID_30_);}
	.st118{fill-rule:evenodd;clip-rule:evenodd;fill:url(#SVGID_31_);}
	.st119{fill-rule:evenodd;clip-rule:evenodd;fill:url(#SVGID_32_);}
	.st120{fill-rule:evenodd;clip-rule:evenodd;fill:url(#SVGID_33_);}
	.st121{fill-rule:evenodd;clip-rule:evenodd;fill:url(#SVGID_34_);}
	.st122{fill-rule:evenodd;clip-rule:evenodd;fill:url(#SVGID_35_);}
	.st123{fill-rule:evenodd;clip-rule:evenodd;fill:url(#SVGID_36_);}
	.st124{fill-rule:evenodd;clip-rule:evenodd;fill:url(#SVGID_37_);}
	.st125{fill-rule:evenodd;clip-rule:evenodd;fill:url(#SVGID_38_);}
	.st126{fill-rule:evenodd;clip-rule:evenodd;fill:url(#SVGID_39_);}
	.st127{fill-rule:evenodd;clip-rule:evenodd;fill:url(#SVGID_40_);}
	.st128{fill-rule:evenodd;clip-rule:evenodd;fill:url(#SVGID_41_);}
	.st129{fill-rule:evenodd;clip-rule:evenodd;fill:url(#SVGID_42_);}
	.st130{fill-rule:evenodd;clip-rule:evenodd;fill:url(#SVGID_43_);}
	.st131{fill-rule:evenodd;clip-rule:evenodd;fill:url(#SVGID_44_);}
	.st132{fill-rule:evenodd;clip-rule:evenodd;fill:url(#SVGID_45_);}
	.st133{fill-rule:evenodd;clip-rule:evenodd;fill:url(#SVGID_46_);}
	.st134{fill-rule:evenodd;clip-rule:evenodd;fill:url(#SVGID_47_);}
	.st135{fill-rule:evenodd;clip-rule:evenodd;fill:url(#SVGID_48_);}
	.st136{fill-rule:evenodd;clip-rule:evenodd;fill:url(#SVGID_49_);}
	.st137{fill-rule:evenodd;clip-rule:evenodd;fill:url(#SVGID_50_);}
	.st138{fill-rule:evenodd;clip-rule:evenodd;fill:url(#SVGID_51_);}
	.st139{fill-rule:evenodd;clip-rule:evenodd;fill:url(#SVGID_52_);}
	.st140{fill-rule:evenodd;clip-rule:evenodd;fill:url(#SVGID_53_);}
	.st141{fill-rule:evenodd;clip-rule:evenodd;fill:url(#SVGID_54_);}
	.st142{fill-rule:evenodd;clip-rule:evenodd;fill:url(#SVGID_55_);}
	.st143{fill-rule:evenodd;clip-rule:evenodd;fill:url(#SVGID_56_);}
	.st144{fill-rule:evenodd;clip-rule:evenodd;fill:url(#SVGID_57_);}
	.st145{fill-rule:evenodd;clip-rule:evenodd;fill:url(#SVGID_58_);}
	.st146{fill-rule:evenodd;clip-rule:evenodd;fill:url(#SVGID_59_);}
	.st147{fill-rule:evenodd;clip-rule:evenodd;fill:url(#SVGID_60_);}
	.st148{fill-rule:evenodd;clip-rule:evenodd;fill:url(#SVGID_61_);}
	.st149{fill-rule:evenodd;clip-rule:evenodd;fill:url(#SVGID_62_);}
	.st150{fill-rule:evenodd;clip-rule:evenodd;fill:url(#SVGID_63_);}
	.st151{fill-rule:evenodd;clip-rule:evenodd;fill:url(#SVGID_64_);}
	.st152{fill-rule:evenodd;clip-rule:evenodd;fill:url(#SVGID_65_);}
	.st153{fill-rule:evenodd;clip-rule:evenodd;fill:url(#SVGID_66_);}
	.st154{fill-rule:evenodd;clip-rule:evenodd;fill:url(#SVGID_67_);}
	.st155{fill-rule:evenodd;clip-rule:evenodd;fill:url(#SVGID_68_);}
	.st156{fill-rule:evenodd;clip-rule:evenodd;fill:url(#SVGID_69_);filter:url(#Adobe_OpacityMaskFilter_9_);}
	.st157{mask:url(#id22_1_);fill-rule:evenodd;clip-rule:evenodd;fill:#00CCFF;}
	.st158{fill-rule:evenodd;clip-rule:evenodd;fill:url(#SVGID_70_);filter:url(#Adobe_OpacityMaskFilter_10_);}
	.st159{mask:url(#id24_1_);fill-rule:evenodd;clip-rule:evenodd;fill:#FF99FF;}
	.st160{fill-rule:evenodd;clip-rule:evenodd;fill:url(#SVGID_71_);filter:url(#Adobe_OpacityMaskFilter_11_);}
	.st161{mask:url(#id26_1_);fill-rule:evenodd;clip-rule:evenodd;fill:#00CCFF;}
	.st162{clip-path:url(#SVGID_73_);}
	.st163{fill-rule:evenodd;clip-rule:evenodd;fill:url(#SVGID_74_);filter:url(#Adobe_OpacityMaskFilter_12_);}
	.st164{mask:url(#id29_1_);fill-rule:evenodd;clip-rule:evenodd;fill:#A22DD9;}
	.st165{fill-rule:evenodd;clip-rule:evenodd;fill:#7939C0;fill-opacity:0.7608;}
	
		.st166{fill-rule:evenodd;clip-rule:evenodd;fill:#3D2984;fill-opacity:0.8314;stroke:#641DAE;stroke-width:0.2175;stroke-miterlimit:14.2485;stroke-opacity:0.8314;}
	.st167{fill-rule:evenodd;clip-rule:evenodd;fill:url(#SVGID_75_);}
	.st168{fill-rule:evenodd;clip-rule:evenodd;fill:#CFF5FF;}
	.st169{fill-rule:evenodd;clip-rule:evenodd;fill:#FFC2FF;fill-opacity:0;}
	.st170{fill-rule:evenodd;clip-rule:evenodd;fill:#FFC2FF;fill-opacity:3.922000e-03;}
	.st171{fill-rule:evenodd;clip-rule:evenodd;fill:#FFC2FF;fill-opacity:7.843000e-03;}
	.st172{fill-rule:evenodd;clip-rule:evenodd;fill:#FFC2FF;fill-opacity:1.176500e-02;}
	.st173{fill-rule:evenodd;clip-rule:evenodd;fill:#FFC2FF;fill-opacity:1.568600e-02;}
	.st174{fill-rule:evenodd;clip-rule:evenodd;fill:#FFC2FF;fill-opacity:1.960800e-02;}
	.st175{fill-rule:evenodd;clip-rule:evenodd;fill:#FFC2FF;fill-opacity:2.352900e-02;}
	.st176{fill-rule:evenodd;clip-rule:evenodd;fill:#FFC2FF;fill-opacity:2.745100e-02;}
	.st177{fill-rule:evenodd;clip-rule:evenodd;fill:#FFC2FF;fill-opacity:3.137300e-02;}
	.st178{fill-rule:evenodd;clip-rule:evenodd;fill:#FFC2FF;fill-opacity:3.529400e-02;}
	.st179{fill-rule:evenodd;clip-rule:evenodd;fill:#FFC2FF;fill-opacity:3.921600e-02;}
	.st180{fill:#1B1547;}
</style>
<g>
	<g>
		<g id="_2514846886672">
			
				<linearGradient id="SVGID_1_" gradientUnits="userSpaceOnUse" x1="1078.1891" y1="-188.5564" x2="648.8992" y2="-512.6664" gradientTransform="matrix(0.6215 0 0 -0.6215 -224.6701 338.4574)">
				<stop  offset="0" style="stop-color:#3C376D"/>
				<stop  offset="1" style="stop-color:#6F6FB0"/>
			</linearGradient>
			<path class="st0" d="M150.6,568.2c28.9-5.3,61.4-21.4,85.8-11.1l235,99l109.2-13.6l60.3-29.1L311.2,474.5
				c-31.1-13.1-39.3-25.6-44.6-42.6c-14.4-46-22.3-66.6-67.4-95.6C221.3,450.4,45.2,587.7,150.6,568.2L150.6,568.2z"/>
			<defs>
				<filter id="Adobe_OpacityMaskFilter" filterUnits="userSpaceOnUse" x="116.7" y="336.3" width="524.2" height="319.8">
					<feColorMatrix  type="matrix" values="1 0 0 0 0  0 1 0 0 0  0 0 1 0 0  0 0 0 1 0"/>
				</filter>
			</defs>
			<mask maskUnits="userSpaceOnUse" x="116.7" y="336.3" width="524.2" height="319.8" id="id0_1_">
				
					<linearGradient id="SVGID_2_" gradientUnits="userSpaceOnUse" x1="1002.3277" y1="-126.0512" x2="960.3376" y2="-297.1712" gradientTransform="matrix(0.6215 0 0 -0.6215 -224.6701 338.4574)">
					<stop  offset="0" style="stop-color:#FFFFFF"/>
					<stop  offset="1" style="stop-color:#FFFFFF;stop-opacity:0"/>
				</linearGradient>
				<rect x="116.7" y="336.3" class="st1" width="524.2" height="319.8"/>
			</mask>
			<path class="st2" d="M150.6,568.2c28.9-5.3,61.4-21.4,85.8-11.1l235,99l109.2-13.6l60.3-29.1L311.2,474.5
				c-31.1-13.1-39.3-25.6-44.6-42.6c-14.4-46-22.3-66.6-67.4-95.6C221.3,450.4,45.2,587.7,150.6,568.2L150.6,568.2z"/>
			
				<linearGradient id="SVGID_3_" gradientUnits="userSpaceOnUse" x1="771.4026" y1="-277.6486" x2="1088.8926" y2="-473.9186" gradientTransform="matrix(0.6215 0 0 -0.6215 -224.6701 338.4574)">
				<stop  offset="0" style="stop-color:#686AA8"/>
				<stop  offset="1" style="stop-color:#403E70"/>
			</linearGradient>
			<path class="st3" d="M210.5,355.7c0.5,43.1-20.8,86.8-41.7,123c-10.6,18.4-22.4,36.4-32.7,55c-3.2,5.8-6.7,12.3-8.7,18.6
				c-0.4,1.3-1.7,5.7-1.2,7.2c1,0.7,4.1,1,5.1,1.1c5.6,0.4,12.1-0.6,17.6-1.6c14.9-2.8,29.4-7.9,44.2-11.3c15.4-3.5,32-5.5,47,0.8
				l278.5,117.3l57.7-31.6l41.8-20.1L307.5,483.1c-12.5-5.3-25.6-12.1-35.1-22c-7.5-7.8-11.6-16.3-14.8-26.4
				C245.3,395.7,238.2,377,210.5,355.7L210.5,355.7z"/>
			
				<linearGradient id="SVGID_4_" gradientUnits="userSpaceOnUse" x1="777.1316" y1="-310.5148" x2="426.0716" y2="-55.7448" gradientTransform="matrix(0.6215 0 0 -0.6215 -224.6701 338.4574)">
				<stop  offset="0" style="stop-color:#7C7FBF"/>
				<stop  offset="1" style="stop-color:#8180AB"/>
			</linearGradient>
			<path class="st4" d="M0,437.6c0.6,69.3,55.2,131.2,125.5,132.8c43.4,1,81.9-22.4,106.4-56.2c23.1-31.9,33.8-73.2,24.5-111.8
				c-15.8-65.7-94-111.3-159-90.3c-12.8,4.1-20.6,13.8-8.1,23.6c24.3,19,48.7,38,73,57.1c17.9,27.2-41.9,97.8-69,88.3
				c-24.3-19-48.5-37.9-72.8-56.9C9.4,415.5-0.1,424.9,0,437.6L0,437.6z"/>
			<g>
				<defs>
					<path id="SVGID_5_" d="M0,437.6c0.6,69.3,55.2,131.2,125.5,132.8c43.4,1,81.9-22.4,106.4-56.2c23.1-31.9,33.8-73.2,24.5-111.8
						c-15.8-65.7-94-111.3-159-90.3c-12.8,4.1-20.6,13.8-8.1,23.6c24.3,19,48.7,38,73,57.1c17.9,27.2-41.9,97.8-69,88.3
						c-24.3-19-48.5-37.9-72.8-56.9C9.4,415.5-0.1,424.9,0,437.6L0,437.6z"/>
				</defs>
				<clipPath id="SVGID_6_">
					<use xlink:href="#SVGID_5_"  style="overflow:visible;"/>
				</clipPath>
				<g class="st5">
					<g>
						<defs>
							<filter id="Adobe_OpacityMaskFilter_1_" filterUnits="userSpaceOnUse" x="-30.5" y="406.8" width="140.5" height="108.2">
								<feColorMatrix  type="matrix" values="1 0 0 0 0  0 1 0 0 0  0 0 1 0 0  0 0 0 1 0"/>
							</filter>
						</defs>
						<mask maskUnits="userSpaceOnUse" x="-30.5" y="406.8" width="140.5" height="108.2" id="id3_1_">
							
								<linearGradient id="SVGID_7_" gradientUnits="userSpaceOnUse" x1="293.2886" y1="61.7078" x2="452.5186" y2="-250.1023" gradientTransform="matrix(0.6215 0 0 -0.6215 -224.6701 338.4574)">
								<stop  offset="0" style="stop-color:#FFFFFF"/>
								<stop  offset="1" style="stop-color:#FFFFFF;stop-opacity:0"/>
							</linearGradient>
							<rect x="-30.8" y="406.5" class="st6" width="141" height="108.8"/>
						</mask>
						<polygon id="_1" class="st7" points="-3.6,407.6 21.8,406.8 110,470.2 100.8,515 -18.4,509.2 -30.5,447.6 						"/>
						<defs>
							<filter id="Adobe_OpacityMaskFilter_2_" filterUnits="userSpaceOnUse" x="67.3" y="233.9" width="222.4" height="168.5">
								<feColorMatrix  type="matrix" values="1 0 0 0 0  0 1 0 0 0  0 0 1 0 0  0 0 0 1 0"/>
							</filter>
						</defs>
						<mask maskUnits="userSpaceOnUse" x="67.3" y="233.9" width="222.4" height="168.5" id="id5_1_">
							
								<linearGradient id="SVGID_8_" gradientUnits="userSpaceOnUse" x1="665.8867" y1="88.2293" x2="631.0367" y2="-24.9607" gradientTransform="matrix(0.6215 0 0 -0.6215 -224.6701 338.4574)">
								<stop  offset="0" style="stop-color:#FFFFFF"/>
								<stop  offset="1" style="stop-color:#FFFFFF;stop-opacity:0"/>
							</linearGradient>
							<rect x="67.1" y="233.7" class="st8" width="223" height="169"/>
						</mask>
						<polygon class="st9" points="145.8,233.9 262.6,312.5 289.8,394.8 236.8,402.4 67.3,315.5 73.5,250.2 						"/>
						<g>
							<path class="st10" d="M112.4,323.5c33.9,1.2,92.2,70.2,92.4,78.4c0.2,8.2-64.1,24.1-82.6,13.1s-69.6-78.4-69.8-86.6
								C52.2,320.2,78.4,322.3,112.4,323.5L112.4,323.5z"/>
							<path class="st11" d="M112,323.9c33.6,1.2,91.6,69.6,91.8,77.7c0.2,8.1-63.4,23.5-81.6,12.7c-18.2-10.8-68.9-77.3-69-85.4
								C53,320.7,78.5,322.7,112,323.9L112,323.9z"/>
							<path class="st12" d="M111.7,324.2c33.2,1.2,91,68.9,91.2,77c0.2,8-62.6,22.9-80.6,12.2c-18-10.7-68.1-76.3-68.2-84.3
								C53.9,321.1,78.5,323,111.7,324.2L111.7,324.2z"/>
							<path class="st13" d="M111.4,324.6c32.8,1.2,90.4,68.3,90.5,76.2c0.2,7.9-61.8,22.4-79.6,11.8
								c-17.8-10.6-67.3-75.2-67.5-83.1C54.7,321.6,78.6,323.4,111.4,324.6z"/>
							<path class="st14" d="M111.1,324.9c32.4,1.2,89.8,67.7,89.9,75.5c0.2,7.8-61,21.8-78.5,11.4c-17.5-10.4-66.5-74.1-66.7-82
								S78.7,323.7,111.1,324.9z"/>
							<path class="st15" d="M110.8,325.3c32.1,1.2,89.2,67,89.3,74.7c0.2,7.7-60.2,21.2-77.5,10.9s-65.8-73.1-65.9-80.8
								S78.7,324.1,110.8,325.3L110.8,325.3z"/>
							<path class="st16" d="M110.5,325.6c31.7,1.2,88.5,66.4,88.7,74c0.2,7.6-59.4,20.7-76.5,10.5s-65-72-65.1-79.6
								C57.3,322.9,78.8,324.4,110.5,325.6L110.5,325.6z"/>
							<path class="st17" d="M110.1,326c31.3,1.2,87.9,65.8,88.1,73.3c0.2,7.5-58.6,20.1-75.5,10.1c-16.8-10-64.2-71-64.4-78.5
								C58.2,323.4,78.8,324.8,110.1,326L110.1,326z"/>
							<path class="st18" d="M109.8,326.3c30.9,1.2,87.3,65.1,87.5,72.5c0.2,7.4-57.9,19.5-74.5,9.7s-63.4-69.9-63.6-77.3
								S78.9,325.1,109.8,326.3z"/>
							<path class="st19" d="M109.5,326.7c30.5,1.2,86.7,64.5,86.9,71.8c0.2,7.3-57.1,19-73.4,9.2c-16.4-9.7-62.7-68.8-62.8-76.1
								C59.9,324.2,79,325.5,109.5,326.7z"/>
							<path class="st20" d="M109.2,327c30.2,1.2,86.1,63.8,86.3,71c0.1,7.2-56.3,18.4-72.4,8.8s-61.9-67.8-62-75
								C60.8,324.7,79,325.8,109.2,327L109.2,327z"/>
							<path class="st21" d="M108.9,327.4c29.8,1.2,85.5,63.2,85.6,70.3c0.1,7.1-55.5,17.8-71.4,8.4c-15.9-9.5-61.1-66.7-61.3-73.8
								S79.1,326.2,108.9,327.4z"/>
							<path class="st22" d="M108.6,327.7c29.4,1.2,84.9,62.6,85,69.6c0.1,7-54.7,17.3-70.4,7.9c-15.7-9.3-60.3-65.7-60.5-72.6
								S79.1,326.5,108.6,327.7L108.6,327.7z"/>
							<path class="st23" d="M108.2,328.1c29,1.2,84.3,61.9,84.4,68.8c0.1,6.9-53.9,16.7-69.4,7.5c-15.5-9.2-59.6-64.6-59.7-71.5
								C63.4,326,79.2,326.9,108.2,328.1L108.2,328.1z"/>
							<path class="st24" d="M107.9,328.4c28.7,1.2,83.7,61.3,83.8,68.1c0.1,6.8-53.1,16.1-68.4,7.1c-15.2-9-58.8-63.5-58.9-70.3
								C64.3,326.5,79.3,327.2,107.9,328.4L107.9,328.4z"/>
							<path class="st25" d="M107.6,328.7c28.3,1.2,83,60.7,83.2,67.3c0.1,6.7-52.4,15.6-67.3,6.7s-58-62.5-58.2-69.1
								C65.1,326.9,79.3,327.5,107.6,328.7L107.6,328.7z"/>
							<path class="st26" d="M107.3,329.1c27.9,1.2,82.4,60,82.6,66.6c0.1,6.6-51.6,15-66.3,6.2c-14.8-8.8-57.3-61.4-57.4-68
								C66,327.4,79.4,327.9,107.3,329.1z"/>
							<path class="st27" d="M107,329.4c27.5,1.2,81.8,59.4,82,65.9c0.1,6.5-50.8,14.4-65.3,5.8c-14.5-8.6-56.5-60.3-56.6-66.8
								C66.9,327.8,79.4,328.2,107,329.4L107,329.4z"/>
							<path class="st28" d="M106.7,329.8c27.1,1.2,81.2,58.8,81.3,65.1c0.1,6.4-50,13.9-64.3,5.4c-14.3-8.5-55.7-59.3-55.8-65.7
								C67.7,328.3,79.5,328.6,106.7,329.8L106.7,329.8z"/>
							<path class="st29" d="M106.3,330.1c26.8,1.2,80.6,58.1,80.7,64.4c0.1,6.3-49.2,13.3-63.3,4.9c-14.1-8.3-54.9-58.2-55.1-64.5
								C68.6,328.7,79.6,328.9,106.3,330.1z"/>
						</g>
						<g>
							<path class="st30" d="M-23.5,404.4c38.8,10.2,170.9,137.3,170.6,146.3c-0.3,9-57.8,72.1-78.3,55.4
								C48.2,589.3-92.9,403-92.6,394C-92.3,385-62.4,394.2-23.5,404.4L-23.5,404.4z"/>
							<path class="st31" d="M-23.9,404.7c38.4,10.1,168.5,135.7,168.2,144.6c-0.3,8.9-56.8,70.7-77.1,54.2S-91.9,403.5-91.6,394.6
								C-91.4,385.7-62.3,394.6-23.9,404.7L-23.9,404.7z"/>
							<path class="st32" d="M-24.3,405c38,10,166.1,134,165.8,142.8c-0.3,8.8-55.9,69.3-75.9,53S-90.9,404-90.7,395.2
								C-90.4,386.5-62.3,395-24.3,405L-24.3,405z"/>
							<path class="st33" d="M-24.7,405.3c37.5,9.9,163.6,132.3,163.4,141c-0.3,8.7-54.9,67.9-74.7,51.8
								C44.3,581.9-90,404.5-89.7,395.8C-89.4,387.2-62.2,395.4-24.7,405.3L-24.7,405.3z"/>
							<path class="st34" d="M-25,405.6c37.1,9.8,161.2,130.7,161,139.2c-0.3,8.6-54,66.5-73.5,50.6C43,579.5-89,405-88.7,396.4
								C-88.5,387.9-62.2,395.8-25,405.6L-25,405.6z"/>
							<path class="st35" d="M-25.4,405.9c36.7,9.7,158.8,129,158.6,137.5c-0.3,8.4-53,65.1-72.3,49.4C41.6,577-88,405.5-87.8,397
								C-87.5,388.6-62.1,396.2-25.4,405.9L-25.4,405.9z"/>
							<path class="st36" d="M-25.8,406.2c36.2,9.6,156.4,127.4,156.2,135.7s-52.1,63.7-71,48.2C40.3,574.6-87,406-86.8,397.6
								S-62.1,396.6-25.8,406.2L-25.8,406.2z"/>
							<path class="st37" d="M-26.2,406.5c35.8,9.5,154,125.7,153.8,133.9c-0.3,8.2-51.1,62.3-69.8,47
								C39,572.1-86.1,406.4-85.8,398.2S-62,397-26.2,406.5L-26.2,406.5z"/>
							<path class="st38" d="M-26.6,406.8C8.8,416.2,125,530.8,124.8,538.9c-0.3,8.1-50.1,60.9-68.6,45.8s-141.3-177.8-141-185.9
								C-84.6,390.7-62,397.4-26.6,406.8L-26.6,406.8z"/>
							<path class="st39" d="M-27,407.1C8,416.4,122.2,529.5,122,537.4c-0.2,8-49.2,59.5-67.4,44.7
								C36.4,567.2-84.1,407.4-83.9,399.4C-83.6,391.4-61.9,397.8-27,407.1z"/>
							<path class="st40" d="M-27.3,407.4C7.2,416.6,119.4,528.1,119.2,536c-0.2,7.9-48.2,58.1-66.2,43.5S-83.2,407.9-82.9,400
								C-82.7,392.2-61.9,398.2-27.3,407.4z"/>
							<path class="st41" d="M-27.7,407.7c34.1,9.1,144.4,119.1,144.1,126.8c-0.2,7.8-47.3,56.7-64.9,42.3
								C33.8,562.3-82.2,408.4-81.9,400.6C-81.7,392.9-61.8,398.5-27.7,407.7L-27.7,407.7z"/>
							<path class="st42" d="M-28.1,408c33.6,9,142,117.4,141.7,125.1c-0.2,7.6-46.3,55.3-63.7,41.1S-81.2,408.9-81,401.2
								C-80.7,393.6-61.8,398.9-28.1,408L-28.1,408z"/>
							<path class="st43" d="M-28.5,408.2C4.7,417.2,111.1,524,110.8,531.5c-0.2,7.5-45.3,53.9-62.5,39.9
								C31.1,557.4-80.2,409.4-80,401.8C-79.8,394.3-61.7,399.3-28.5,408.2L-28.5,408.2z"/>
							<path class="st44" d="M-28.9,408.5C3.9,417.4,108.3,522.6,108,530.1c-0.2,7.4-44.4,52.5-61.3,38.7
								C29.8,555-79.3,409.9-79,402.4C-78.8,395-61.7,399.7-28.9,408.5L-28.9,408.5z"/>
							<path class="st45" d="M-29.3,408.8c32.3,8.7,134.7,112.4,134.5,119.7c-0.2,7.3-43.4,51.1-60.1,37.5
								C28.5,552.5-78.3,410.3-78.1,403S-61.6,400.1-29.3,408.8L-29.3,408.8z"/>
							<path class="st46" d="M-29.6,409.1c31.9,8.6,132.3,110.8,132.1,118c-0.2,7.2-42.5,49.7-58.9,36.3S-77.3,410.8-77.1,403.6
								C-76.9,396.4-61.6,400.5-29.6,409.1L-29.6,409.1z"/>
							<path class="st47" d="M-30,409.4C1.4,417.9,99.9,518.6,99.7,525.6c-0.2,7.1-41.5,48.3-57.6,35.2
								C25.9,547.6-76.3,411.3-76.1,404.2C-75.9,397.2-61.5,400.9-30,409.4z"/>
							<path class="st48" d="M-30.4,409.7c31,8.4,127.5,107.5,127.3,114.4s-40.5,46.9-56.4,34c-15.9-13-115.8-146.3-115.6-153.3
								C-74.9,397.9-61.5,401.3-30.4,409.7L-30.4,409.7z"/>
							<path class="st49" d="M-30.8,410c30.6,8.3,125.1,105.8,124.9,112.7c-0.2,6.8-39.6,45.5-55.2,32.8s-113.3-143.2-113.1-150
								C-74,398.6-61.4,401.7-30.8,410z"/>
						</g>
					</g>
				</g>
			</g>
			<path class="st50" d="M0,437.6c0.6,69.3,55.2,131.2,125.5,132.8c43.4,1,81.9-22.4,106.4-56.2c23.1-31.9,33.8-73.2,24.5-111.8
				c-15.8-65.7-94-111.3-159-90.3c-12.8,4.1-20.6,13.8-8.1,23.6c24.3,19,48.7,38,73,57.1c17.9,27.2-41.9,97.8-69,88.3
				c-24.3-19-48.5-37.9-72.8-56.9C9.4,415.5-0.1,424.9,0,437.6L0,437.6z"/>
			<defs>
				<filter id="Adobe_OpacityMaskFilter_3_" filterUnits="userSpaceOnUse" x="0" y="306.9" width="259.7" height="263.5">
					<feColorMatrix  type="matrix" values="1 0 0 0 0  0 1 0 0 0  0 0 1 0 0  0 0 0 1 0"/>
				</filter>
			</defs>
			<mask maskUnits="userSpaceOnUse" x="0" y="306.9" width="259.7" height="263.5" id="id7_1_">
				
					<linearGradient id="SVGID_9_" gradientUnits="userSpaceOnUse" x1="898.9877" y1="60.8687" x2="639.9377" y2="-114.2613" gradientTransform="matrix(0.6215 0 0 -0.6215 -224.6701 338.4574)">
					<stop  offset="0" style="stop-color:#FFFFFF"/>
					<stop  offset="1" style="stop-color:#FFFFFF;stop-opacity:0"/>
				</linearGradient>
				<rect x="0" y="306.9" class="st51" width="259.7" height="263.5"/>
			</mask>
			<path class="st52" d="M0,437.6c0.6,69.3,55.2,131.2,125.5,132.8c43.4,1,81.9-22.4,106.4-56.2c23.1-31.9,33.8-73.2,24.5-111.8
				c-15.8-65.7-94-111.3-159-90.3c-12.8,4.1-20.6,13.8-8.1,23.6c24.3,19,48.7,38,73,57.1c17.9,27.2-41.9,97.8-69,88.3
				c-24.3-19-48.5-37.9-72.8-56.9C9.4,415.5-0.1,424.9,0,437.6L0,437.6z"/>
			
				<linearGradient id="SVGID_10_" gradientUnits="userSpaceOnUse" x1="782.5031" y1="-278.4806" x2="324.5231" y2="-24.7806" gradientTransform="matrix(0.6215 0 0 -0.6215 -224.6701 338.4574)">
				<stop  offset="0" style="stop-color:#7B7FBB"/>
				<stop  offset="1" style="stop-color:#414081"/>
			</linearGradient>
			<path class="st53" d="M168.9,388.4c13.3,20.3-5,51.1-18.1,67.2c-12.2,15.1-38.8,40.3-60.1,32.8c-17.8-9.7-56.7-43.8-75-58.1
				c-5.8-4.6-7.8,2.3-7.7,7.2c0.5,65.7,52.7,124.5,119.5,125c37.2,0.3,71.6-18.4,95.6-49.6c24.2-31.4,35-72.4,25.3-110.1
				c-15.4-60.5-88.5-102.6-148.5-83.1c-5.8,1.9-11,5.7-5.7,9.9L168.9,388.4L168.9,388.4z"/>
			<defs>
				<filter id="Adobe_OpacityMaskFilter_4_" filterUnits="userSpaceOnUse" x="248" y="469.3" width="384.6" height="186.8">
					<feColorMatrix  type="matrix" values="1 0 0 0 0  0 1 0 0 0  0 0 1 0 0  0 0 0 1 0"/>
				</filter>
			</defs>
			<mask maskUnits="userSpaceOnUse" x="248" y="469.3" width="384.6" height="186.8" id="id9_1_">
				
					<linearGradient id="SVGID_11_" gradientUnits="userSpaceOnUse" x1="1220.5123" y1="-360.8367" x2="841.7924" y2="-360.8367" gradientTransform="matrix(0.6215 0 0 -0.6215 -224.6701 338.4574)">
					<stop  offset="0" style="stop-color:#FFFFFF"/>
					<stop  offset="1" style="stop-color:#FFFFFF;stop-opacity:0"/>
				</linearGradient>
				<rect x="248" y="469.3" class="st54" width="384.6" height="186.8"/>
			</mask>
			<path class="st55" d="M628.4,608.1c1.7,3,3.1,6.1,4.3,9.3l-52.1,25.1l-109.3,13.7l-153.6-64.8L248,562l52.1-92.7l11.1,5.1
				L628.4,608.1L628.4,608.1z"/>
		</g>
		<g id="_2514855313936">
			
				<linearGradient id="SVGID_12_" gradientUnits="userSpaceOnUse" x1="675.233" y1="161.9693" x2="809.553" y2="378.6593" gradientTransform="matrix(0.6215 0 0 -0.6215 -224.6701 338.4574)">
				<stop  offset="0" style="stop-color:#A194B3"/>
				<stop  offset="1" style="stop-color:#EADCE6"/>
			</linearGradient>
			<path class="st56" d="M184.7,234l90.4-28.1l64-65L239,87.9c-3.2-1.7-29.1-2.4-32.2-0.5c-3.1,1.9-22.3,29.8-22.3,33.4L184.7,234
				L184.7,234z"/>
			<g>
				<defs>
					<path id="SVGID_13_" d="M184.7,234l90.4-28.1l64-65L239,87.9c-3.2-1.7-29.1-2.4-32.2-0.5c-3.1,1.9-22.3,29.8-22.3,33.4
						L184.7,234L184.7,234z"/>
				</defs>
				<clipPath id="SVGID_14_">
					<use xlink:href="#SVGID_13_"  style="overflow:visible;"/>
				</clipPath>
				<g class="st57">
					<g>
						<g>
							<polygon id="_1_0" class="st58" points="-35.4,-115.2 36,-178.6 531.7,380.8 460.3,444.2 							"/>
							<g>
								<path class="st59" d="M-29.6-111.8c22.7-20.2,45.5-40.4,68.2-60.6C201,10.8,363.5,194.2,525.9,377.5
									c-22.7,20.2-45.5,40.4-68.2,60.6C295.3,254.8,132.8,71.5-29.6-111.8L-29.6-111.8z"/>
								<path class="st59" d="M-23.9-108.5c21.7-19.3,43.4-38.6,65.1-57.8C200.9,13.8,360.5,194,520.2,374.1
									c-21.7,19.3-43.4,38.6-65.1,57.8C295.4,251.8,135.8,71.7-23.9-108.5L-23.9-108.5z"/>
								<path class="st60" d="M-18.1-105.2c20.6-18.3,41.3-36.7,61.9-55c156.9,177,313.7,354,470.6,531
									c-20.6,18.3-41.3,36.7-61.9,55C295.6,248.8,138.8,71.8-18.1-105.2L-18.1-105.2z"/>
								<path class="st60" d="M-12.3-101.8c19.6-17.4,39.2-34.8,58.8-52.2C200.5,19.8,354.6,193.6,508.6,367.5
									c-19.6,17.4-39.2,34.8-58.8,52.2C295.8,245.9,141.7,72-12.3-101.8L-12.3-101.8z"/>
								<path class="st61" d="M-6.6-98.5C12-115,30.5-131.5,49.1-148C200.3,22.7,351.6,193.4,502.9,364.1
									c-18.5,16.5-37.1,33-55.6,49.4C296,242.9,144.7,72.2-6.6-98.5z"/>
								<path class="st62" d="M-0.8-95.2c17.5-15.6,35-31.1,52.5-46.7c148.5,167.5,297,335.1,445.4,502.6
									c-17.5,15.6-35,31.1-52.5,46.7C296.1,239.9,147.7,72.4-0.8-95.2z"/>
								<path class="st62" d="M5-91.9c16.5-14.6,32.9-29.2,49.4-43.9C200,28.7,345.7,193.1,491.4,357.5
									c-16.5,14.6-32.9,29.2-49.3,43.9C296.3,236.9,150.6,72.5,5-91.9L5-91.9z"/>
								<path class="st63" d="M10.7-88.5c15.4-13.7,30.8-27.4,46.2-41.1C199.8,31.7,342.7,192.9,485.6,354.2
									c-15.4,13.7-30.8,27.4-46.2,41.1C296.5,234,153.6,72.7,10.7-88.5z"/>
								<path class="st63" d="M16.5-85.2c14.4-12.8,28.7-25.5,43.1-38.3C199.6,34.6,339.7,192.7,479.8,350.8
									c-14.4,12.8-28.7,25.5-43.1,38.3C296.7,231,156.6,72.9,16.5-85.2z"/>
								<path class="st64" d="M22.2-81.9c13.3-11.8,26.6-23.6,39.9-35.5C199.5,37.6,336.8,192.5,474.1,347.5
									c-13.3,11.8-26.6,23.6-39.9,35.5C296.8,228,159.5,73.1,22.2-81.9L22.2-81.9z"/>
								<path class="st65" d="M28-78.5c12.3-10.9,24.5-21.8,36.8-32.7c134.5,151.8,269,303.6,403.5,455.4
									c-12.3,10.9-24.5,21.8-36.8,32.7C297,225,162.5,73.3,28-78.5L28-78.5z"/>
								<path class="st65" d="M33.8-75.2c11.2-10,22.4-19.9,33.6-29.9C199.1,43.6,330.8,192.2,462.5,340.8
									c-11.2,10-22.4,19.9-33.6,29.9C297.2,222.1,165.5,73.4,33.8-75.2L33.8-75.2z"/>
								<path class="st66" d="M39.5-71.9C49.7-80.9,59.9-89.9,70-99C198.9,46.5,327.9,192,456.8,337.5c-10.2,9-20.3,18.1-30.5,27.1
									C297.4,219.1,168.5,73.6,39.5-71.9L39.5-71.9z"/>
								<path class="st66" d="M45.3-68.5c9.1-8.1,18.2-16.2,27.3-24.3C198.8,49.5,324.9,191.8,451,334.2
									c-9.1,8.1-18.2,16.2-27.3,24.3C297.6,216.1,171.4,73.8,45.3-68.5L45.3-68.5z"/>
								<path class="st67" d="M51.1-65.2c8.1-7.2,16.1-14.3,24.2-21.5c123.3,139.2,246.7,278.4,370,417.5
									c-8.1,7.2-16.1,14.3-24.2,21.5C297.7,213.2,174.4,74,51.1-65.2L51.1-65.2z"/>
								<path class="st68" d="M56.8-61.9c7-6.2,14-12.5,21-18.7c120.5,136,241.1,272,361.6,408.1c-7,6.2-14,12.5-21,18.7
									C297.9,210.2,177.4,74.2,56.8-61.9L56.8-61.9z"/>
								<path class="st68" d="M62.6-58.5c6-5.3,11.9-10.6,17.9-15.9C198.2,58.4,316,191.3,433.7,324.2c-6,5.3-11.9,10.6-17.9,15.9
									C298.1,207.2,180.3,74.3,62.6-58.5z"/>
								<path class="st69" d="M68.3-55.2c4.9-4.4,9.8-8.7,14.7-13.1C198.1,61.4,313,191.1,428,320.8c-4.9,4.4-9.8,8.7-14.7,13.1
									C298.3,204.2,183.3,74.5,68.3-55.2L68.3-55.2z"/>
								<path class="st70" d="M74.1-51.9c3.9-3.4,7.7-6.9,11.6-10.3C197.9,64.4,310,190.9,422.2,317.5c-3.9,3.4-7.7,6.9-11.6,10.3
									C298.4,201.3,186.3,74.7,74.1-51.9L74.1-51.9z"/>
								<path class="st70" d="M79.9-48.6c2.8-2.5,5.6-5,8.5-7.5C197.7,67.3,307.1,190.8,416.4,314.2c-2.8,2.5-5.6,5-8.5,7.5
									C298.6,198.3,189.2,74.9,79.9-48.6z"/>
							</g>
							<polygon class="st71" points="85.6,-45.2 91,-49.9 410.7,310.8 405.4,315.6 							"/>
						</g>
					</g>
				</g>
			</g>
			<path class="st50" d="M184.7,234l90.4-28.1l64-65L239,87.9c-3.2-1.7-29.1-2.4-32.2-0.5c-3.1,1.9-22.3,29.8-22.3,33.4L184.7,234
				L184.7,234z"/>
			<defs>
				<filter id="Adobe_OpacityMaskFilter_5_" filterUnits="userSpaceOnUse" x="184.5" y="87.4" width="90.5" height="146.5">
					<feColorMatrix  type="matrix" values="1 0 0 0 0  0 1 0 0 0  0 0 1 0 0  0 0 0 1 0"/>
				</filter>
			</defs>
			<mask maskUnits="userSpaceOnUse" x="184.5" y="87.4" width="90.5" height="146.5" id="id12_1_">
				
					<linearGradient id="SVGID_15_" gradientUnits="userSpaceOnUse" x1="633.6948" y1="239.7996" x2="742.5148" y2="291.3596" gradientTransform="matrix(0.6215 0 0 -0.6215 -224.6701 338.4574)">
					<stop  offset="0" style="stop-color:#FFFFFF;stop-opacity:0.6392"/>
					<stop  offset="0.451" style="stop-color:#FFFFFF;stop-opacity:0.3216"/>
					<stop  offset="1" style="stop-color:#FFFFFF;stop-opacity:0"/>
				</linearGradient>
				<rect x="184.5" y="87.4" class="st72" width="90.5" height="146.5"/>
			</mask>
			<polygon class="st73" points="184.7,234 275.1,205.9 206.9,87.4 184.5,120.8 			"/>
			
				<linearGradient id="SVGID_16_" gradientUnits="userSpaceOnUse" x1="837.1473" y1="-128.0758" x2="1092.9274" y2="26.0342" gradientTransform="matrix(0.6215 0 0 -0.6215 -224.6701 338.4574)">
				<stop  offset="0" style="stop-color:#3872E3"/>
				<stop  offset="0.149" style="stop-color:#133FC7"/>
				<stop  offset="0.5686" style="stop-color:#2969FF"/>
				<stop  offset="1" style="stop-color:#2A64F1"/>
			</linearGradient>
			<polygon class="st74" points="184.7,234 339.1,140.8 561.1,509 406.8,602.1 			"/>
			<g>
				<defs>
					<polygon id="SVGID_17_" points="184.7,234 339.1,140.8 561.1,509 406.8,602.1 184.7,234 					"/>
				</defs>
				<clipPath id="SVGID_18_">
					<use xlink:href="#SVGID_17_"  style="overflow:visible;"/>
				</clipPath>
				<g class="st75">
					<g>
						<g>
							<polygon id="_1_1" class="st76" points="52.9,-118.9 168.6,-185.1 706.9,707.4 591.2,773.6 							"/>
							<g>
								<path class="st77" d="M60-112.9c36.9-21.1,73.7-42.2,110.6-63.2C347,116.4,523.4,408.9,699.8,701.3
									c-36.9,21.1-73.7,42.2-110.6,63.2C412.8,472.1,236.4,179.6,60-112.9L60-112.9z"/>
								<path class="st77" d="M67.1-106.8c35.2-20.1,70.3-40.2,105.5-60.3C346,120.4,519.4,407.8,692.7,695.2
									c-35.2,20.1-70.3,40.2-105.5,60.3C413.9,468.1,240.5,180.7,67.1-106.8L67.1-106.8z"/>
								<path class="st78" d="M74.2-100.7c33.5-19.1,66.9-38.3,100.4-57.4c170.3,282.4,340.7,564.8,511,847.2
									c-33.5,19.1-66.9,38.3-100.4,57.4C414.9,464.1,244.6,181.7,74.2-100.7L74.2-100.7z"/>
								<path class="st78" d="M81.3-94.6c31.8-18.2,63.5-36.3,95.3-54.5c167.3,277.4,334.6,554.8,501.9,832.1
									c-31.8,18.2-63.5,36.3-95.3,54.5C415.9,460.2,248.6,182.8,81.3-94.6L81.3-94.6z"/>
								<path class="st79" d="M88.4-88.5c30.1-17.2,60.1-34.4,90.2-51.6C342.9,132.3,507.2,404.6,671.4,677
									c-30.1,17.2-60.1,34.4-90.2,51.6C417,456.2,252.7,183.8,88.4-88.5L88.4-88.5z"/>
								<path class="st80" d="M95.5-82.4c28.4-16.2,56.7-32.4,85.1-48.6c161.2,267.3,322.5,534.6,483.7,802
									c-28.4,16.2-56.7,32.4-85.1,48.6C418,452.2,256.8,184.9,95.5-82.4L95.5-82.4z"/>
								<path class="st80" d="M102.6-76.3c26.7-15.2,53.3-30.5,80-45.7C340.8,140.2,499,402.5,657.2,664.8
									c-26.7,15.2-53.3,30.5-80,45.7C419,448.3,260.8,186,102.6-76.3L102.6-76.3z"/>
								<path class="st81" d="M109.7-70.2c25-14.3,49.9-28.5,74.9-42.8C339.8,144.2,495,401.5,650.1,658.7
									c-25,14.3-49.9,28.5-74.9,42.8C420.1,444.3,264.9,187,109.7-70.2L109.7-70.2z"/>
								<path class="st81" d="M116.8-64.2c23.3-13.3,46.5-26.6,69.8-39.9C338.8,148.2,490.9,400.4,643,652.6
									c-23.3,13.3-46.5,26.6-69.8,39.9C421.1,440.3,269,188.1,116.8-64.2L116.8-64.2z"/>
								<path class="st82" d="M123.9-58.1c21.6-12.3,43.1-24.7,64.7-37c149.1,247.2,298.2,494.4,447.3,741.6
									c-21.6,12.3-43.1,24.7-64.7,37C422.1,436.3,273,189.1,123.9-58.1L123.9-58.1z"/>
								<path class="st83" d="M131-52c19.9-11.4,39.7-22.7,59.6-34.1c146.1,242.2,292.1,484.3,438.2,726.5
									c-19.9,11.4-39.7,22.7-59.6,34.1C423.2,432.4,277.1,190.2,131-52L131-52z"/>
								<path class="st83" d="M138.1-45.9c18.2-10.4,36.3-20.8,54.5-31.2c143,237.1,286.1,474.3,429.1,711.4
									c-18.2,10.4-36.3,20.8-54.5,31.2C424.2,428.4,281.2,191.2,138.1-45.9L138.1-45.9z"/>
								<path class="st84" d="M145.2-39.8c16.5-9.4,32.9-18.8,49.4-28.2c140,232.1,280,464.2,420,696.3
									c-16.5,9.4-32.9,18.8-49.4,28.2C425.2,424.4,285.2,192.3,145.2-39.8L145.2-39.8z"/>
								<path class="st84" d="M152.3-33.7c14.8-8.4,29.5-16.9,44.3-25.3c137,227.1,273.9,454.2,410.9,681.3
									c-14.8,8.4-29.5,16.9-44.3,25.3C426.3,420.4,289.3,193.4,152.3-33.7L152.3-33.7z"/>
								<path class="st85" d="M159.4-27.6c13.1-7.5,26.1-14.9,39.2-22.4C332.6,172,466.5,394.1,600.4,616.1
									c-13.1,7.5-26.1,14.9-39.2,22.4C427.3,416.5,293.4,194.4,159.4-27.6L159.4-27.6z"/>
								<path class="st86" d="M166.5-21.5c11.4-6.5,22.7-13,34.1-19.5C331.5,176,462.4,393,593.3,610c-11.4,6.5-22.7,13-34.1,19.5
									C428.3,412.5,297.4,195.5,166.5-21.5L166.5-21.5z"/>
								<path class="st86" d="M173.6-15.5c9.7-5.5,19.3-11.1,29-16.6c127.9,212,255.7,424,383.6,636c-9.7,5.5-19.3,11.1-29,16.6
									C429.3,408.5,301.5,196.5,173.6-15.5L173.6-15.5z"/>
								<path class="st87" d="M180.7-9.4c8-4.6,15.9-9.1,23.9-13.7c124.8,207,249.7,413.9,374.5,620.9c-8,4.6-15.9,9.1-23.9,13.7
									C430.4,404.6,305.6,197.6,180.7-9.4L180.7-9.4z"/>
								<path class="st88" d="M187.8-3.3c6.3-3.6,12.5-7.2,18.8-10.8C328.4,187.9,450.2,389.8,572,591.8
									c-6.3,3.6-12.5,7.2-18.8,10.8C431.4,400.6,309.6,198.6,187.8-3.3L187.8-3.3z"/>
								<path class="st88" d="M194.9,2.8c4.6-2.6,9.1-5.2,13.7-7.8c118.8,196.9,237.5,393.8,356.3,590.7c-4.6,2.6-9.1,5.2-13.7,7.8
									C432.5,396.6,313.7,199.7,194.9,2.8L194.9,2.8z"/>
							</g>
							<polygon class="st89" points="202,8.9 210.6,4 557.8,579.6 549.2,584.5 							"/>
						</g>
					</g>
				</g>
			</g>
			<polygon class="st50" points="184.7,234 339.1,140.8 561.1,509 406.8,602.1 			"/>
			<defs>
				<filter id="Adobe_OpacityMaskFilter_6_" filterUnits="userSpaceOnUse" x="184.7" y="202.2" width="376.4" height="399.9">
					<feColorMatrix  type="matrix" values="1 0 0 0 0  0 1 0 0 0  0 0 1 0 0  0 0 0 1 0"/>
				</filter>
			</defs>
			<mask maskUnits="userSpaceOnUse" x="184.7" y="202.2" width="376.4" height="399.9" id="id15_1_">
				
					<linearGradient id="SVGID_19_" gradientUnits="userSpaceOnUse" x1="1132.8923" y1="-102.4967" x2="846.2924" y2="-102.4967" gradientTransform="matrix(0.6215 0 0 -0.6215 -224.6701 338.4574)">
					<stop  offset="0" style="stop-color:#FFFFFF"/>
					<stop  offset="1" style="stop-color:#FFFFFF;stop-opacity:0"/>
				</linearGradient>
				<rect x="184.7" y="202.2" class="st90" width="376.4" height="399.9"/>
			</mask>
			<path class="st91" d="M184.7,234c28.2,33.9,59.8,94.1,97,114.6c82.7,45.5,98.2-104.8,94.3-146.4L561.1,509l-154.4,93.1L184.7,234
				L184.7,234z"/>
			
				<linearGradient id="SVGID_20_" gradientUnits="userSpaceOnUse" x1="658.2405" y1="399.8299" x2="728.5205" y2="420.6399" gradientTransform="matrix(0.6215 0 0 -0.6215 -224.6701 338.4574)">
				<stop  offset="0" style="stop-color:#2A214B"/>
				<stop  offset="1" style="stop-color:#2A214B"/>
			</linearGradient>
			<path class="st92" d="M239,87.9l-39.9-21.1l0,0l0,0l-14.6-7.7l0,15.5l0,0c0,0.4,0,0.7,0,1.1l0.1,45.1L239,87.9L239,87.9z"/>
			<g>
				<defs>
					<path id="SVGID_21_" d="M239,87.9l-39.9-21.1l0,0l0,0l-14.6-7.7l0,15.5l0,0c0,0.4,0,0.7,0,1.1l0.1,45.1L239,87.9L239,87.9z"/>
				</defs>
				<clipPath id="SVGID_22_">
					<use xlink:href="#SVGID_21_"  style="overflow:visible;"/>
				</clipPath>
				<g class="st93">
					<g>
						<g>
							<polygon id="_1_2" class="st94" points="161.8,45.2 174,37.4 357.7,173 263.1,243.4 							"/>
							<g>
								<path class="st95" d="M162.1,45.2c3.9-2.5,7.9-5,11.8-7.4c10.6,7.9,35.6,26.8,170.1,128c-27.8,20.5-56.4,41.5-85.7,63
									C181.8,82.6,167.9,56.2,162.1,45.2L162.1,45.2z"/>
								<path class="st95" d="M162.5,45.2c3.8-2.4,7.6-4.8,11.3-7.2c10.4,8,34.7,26.6,157.9,121.1c-25.3,18.4-51.1,37.2-77.5,56.5
									C182.2,81.8,168.4,56.1,162.5,45.2L162.5,45.2z"/>
								<path class="st96" d="M162.9,45.2c3.6-2.3,7.3-4.6,10.9-6.9c10.2,8,33.8,26.4,146.9,114.9c-22.9,16.6-46.3,33.5-70.2,50.7
									C182.6,81,168.8,56,162.9,45.2L162.9,45.2z"/>
								<path class="st96" d="M163.3,45.3c3.5-2.2,6.9-4.4,10.4-6.6c10,8,32.9,26.2,137,109.2c-20.8,14.9-42,30.1-63.6,45.6
									C183.1,80.2,169.3,55.9,163.3,45.3L163.3,45.3z"/>
								<path class="st97" d="M163.7,45.3c3.3-2.1,6.6-4.2,9.9-6.3c9.9,8,32,26,128,104c-18.9,13.4-38,27.1-57.5,41
									C183.5,79.5,169.8,55.8,163.7,45.3L163.7,45.3z"/>
								<path class="st98" d="M164.1,45.3c3.2-2,6.3-4,9.4-6c9.7,8,31.2,25.8,119.8,99.2c-17.1,12.1-34.4,24.3-52,36.8
									C183.9,78.7,170.2,55.7,164.1,45.3L164.1,45.3z"/>
								<path class="st98" d="M164.5,45.4c3-1.9,6-3.8,8.9-5.6c9.5,8,30.3,25.6,112.3,94.8c-15.4,10.8-31,21.8-46.9,33
									C184.3,77.9,170.7,55.6,164.5,45.4L164.5,45.4z"/>
								<path class="st99" d="M164.9,45.4c2.8-1.8,5.6-3.6,8.4-5.3c9.3,8,29.5,25.4,105.4,90.8c-13.9,9.7-27.9,19.6-42.2,29.5
									C184.8,77.2,171.2,55.4,164.9,45.4L164.9,45.4z"/>
								<path class="st99" d="M165.4,45.4c2.6-1.7,5.3-3.3,7.9-5c9.1,8,28.6,25.2,99,87c-12.5,8.7-25.1,17.5-37.8,26.3
									C185.2,76.5,171.7,55.3,165.4,45.4L165.4,45.4z"/>
								<path class="st100" d="M165.8,45.5c2.5-1.6,4.9-3.1,7.4-4.7c9,8,27.8,24.9,93.1,83.4c-11.1,7.7-22.4,15.5-33.8,23.4
									C185.6,75.7,172.1,55.2,165.8,45.5L165.8,45.5z"/>
								<path class="st101" d="M166.2,45.5c2.3-1.4,4.6-2.9,6.9-4.3c8.8,8,27,24.7,87.7,80.1c-9.9,6.9-19.9,13.8-30,20.7
									C186,75,172.6,55.1,166.2,45.5L166.2,45.5z"/>
								<path class="st101" d="M166.7,45.5c2.1-1.3,4.2-2.7,6.3-4c8.6,8,26.2,24.4,82.6,76.9c-8.8,6-17.6,12.1-26.5,18.2
									C186.4,74.3,173.1,55,166.7,45.5L166.7,45.5z"/>
								<path class="st102" d="M167.1,45.6c1.9-1.2,3.9-2.4,5.8-3.7c8.4,8,25.4,24.2,77.8,74c-7.7,5.3-15.5,10.6-23.3,15.9
									C186.7,73.6,173.6,54.8,167.1,45.6L167.1,45.6z"/>
								<path class="st102" d="M167.6,45.6c1.7-1.1,3.5-2.2,5.2-3.3c8.2,8,24.6,23.9,73.4,71.2c-6.7,4.6-13.4,9.2-20.2,13.8
									C187.1,72.9,174.1,54.7,167.6,45.6L167.6,45.6z"/>
								<path class="st103" d="M168.1,45.6c1.6-1,3.1-2,4.7-3c8.1,8,23.9,23.6,69.3,68.5c-5.7,3.9-11.5,7.8-17.3,11.8
									C187.5,72.2,174.6,54.6,168.1,45.6L168.1,45.6z"/>
								<path class="st104" d="M168.5,45.7c1.4-0.9,2.7-1.7,4.1-2.6c7.9,7.9,23.1,23.4,65.4,66c-4.9,3.3-9.7,6.6-14.6,9.9
									C187.9,71.6,175.1,54.5,168.5,45.7L168.5,45.7z"/>
								<path class="st104" d="M169,45.7c1.2-0.7,2.3-1.5,3.5-2.2c7.7,7.9,22.4,23.1,61.8,63.6c-4,2.7-8,5.4-12.1,8.2
									C188.2,70.9,175.6,54.3,169,45.7L169,45.7z"/>
								<path class="st105" d="M169.5,45.8c1-0.6,1.9-1.2,2.9-1.9c7.5,7.9,21.7,22.8,58.3,61.3c-3.2,2.2-6.4,4.4-9.7,6.5
									C188.6,70.2,176.1,54.2,169.5,45.8L169.5,45.8z"/>
								<path class="st106" d="M170,45.8c0.8-0.5,1.5-1,2.3-1.5c7.3,7.9,20.9,22.5,55.1,59.1c-2.5,1.7-4.9,3.3-7.4,5
									C189,69.6,176.6,54.1,170,45.8L170,45.8z"/>
								<path class="st106" d="M170.5,45.8c0.6-0.4,1.1-0.7,1.7-1.1c7.1,7.8,20.2,22.1,52.1,57c-1.7,1.2-3.5,2.3-5.3,3.5
									C189.3,68.9,177.2,54,170.5,45.8L170.5,45.8z"/>
							</g>
							<polygon class="st107" points="171,45.9 172.1,45.2 221.3,100.2 218.1,102.3 							"/>
						</g>
					</g>
				</g>
			</g>
			<path class="st50" d="M239,87.9l-39.9-21.1l0,0l0,0l-14.6-7.7l0,15.5l0,0c0,0.4,0,0.7,0,1.1l0.1,45.1L239,87.9L239,87.9z"/>
			<defs>
				<filter id="Adobe_OpacityMaskFilter_7_" filterUnits="userSpaceOnUse" x="406.4" y="21.1" width="258.2" height="496.7">
					<feColorMatrix  type="matrix" values="1 0 0 0 0  0 1 0 0 0  0 0 1 0 0  0 0 0 1 0"/>
				</filter>
			</defs>
			<mask maskUnits="userSpaceOnUse" x="406.4" y="21.1" width="258.2" height="496.7" id="id18_1_">
				
					<linearGradient id="SVGID_23_" gradientUnits="userSpaceOnUse" x1="1177.9222" y1="32.7214" x2="1515.6522" y2="617.6814" gradientTransform="matrix(0.6215 0 0 -0.6215 -224.6701 338.4574)">
					<stop  offset="0" style="stop-color:#FFFFFF;stop-opacity:0"/>
					<stop  offset="1" style="stop-color:#FFFFFF;stop-opacity:0"/>
				</linearGradient>
				<rect x="406.3" y="21.1" class="st108" width="258.3" height="496.8"/>
			</mask>
			<path class="st109" d="M406.4,21.2h240c9.9,0,18.1,8.1,18.1,18.1v478.6l-1-478.6c0-9.4-7.7-17.1-17.1-17.1L406.4,21.2L406.4,21.2
				z"/>
			<defs>
				<filter id="Adobe_OpacityMaskFilter_8_" filterUnits="userSpaceOnUse" x="184.5" y="59.1" width="53.7" height="174.9">
					<feColorMatrix  type="matrix" values="1 0 0 0 0  0 1 0 0 0  0 0 1 0 0  0 0 0 1 0"/>
				</filter>
			</defs>
			<mask maskUnits="userSpaceOnUse" x="184.5" y="59.1" width="53.7" height="174.9" id="id20_1_">
				
					<linearGradient id="SVGID_24_" gradientUnits="userSpaceOnUse" x1="645.3914" y1="303.8345" x2="681.9313" y2="307.0845" gradientTransform="matrix(0.6215 0 0 -0.6215 -224.6701 338.4574)">
					<stop  offset="0" style="stop-color:#FFFFFF"/>
					<stop  offset="1" style="stop-color:#FFFFFF;stop-opacity:0"/>
				</linearGradient>
				<rect x="184.5" y="59.1" class="st110" width="53.7" height="174.9"/>
			</mask>
			<polygon class="st111" points="184.7,234 238.2,201.7 184.5,59.1 184.5,120.8 			"/>
		</g>
		<g id="_2514855371872">
			
				<linearGradient id="SVGID_25_" gradientUnits="userSpaceOnUse" x1="1220.5123" y1="-548.4266" x2="1220.5123" y2="544.5834" gradientTransform="matrix(0.6215 0 0 -0.6215 -224.6701 338.4574)">
				<stop  offset="0" style="stop-color:#5C1CA8"/>
				<stop  offset="1" style="stop-color:#AA19D0"/>
			</linearGradient>
			<path class="st112" d="M382.9,524V18.6c0-10.2,8.7-18.6,19.3-18.6h263.4c10.6,0,19.3,8.4,19.3,18.6V524
				c0,79.9-67.9,145.3-151,145.3C451,669.3,382.9,604,382.9,524z"/>
			
				<linearGradient id="SVGID_26_" gradientUnits="userSpaceOnUse" x1="1220.5073" y1="-546.9667" x2="1220.5073" y2="543.1633" gradientTransform="matrix(0.6215 0 0 -0.6215 -224.6701 338.4574)">
				<stop  offset="0" style="stop-color:#5E1DAA"/>
				<stop  offset="1" style="stop-color:#AC1CD1"/>
			</linearGradient>
			<path class="st113" d="M383.7,523.9c0-168.2,0-336.3,0-504.5c0-10.1,8.7-18.5,19.2-18.5c87.3,0,174.7,0,262,0
				c10.5,0,19.2,8.3,19.2,18.5c0,168.2,0,336.4,0,504.5c0,79.5-67.6,144.6-150.2,144.6C451.5,668.4,383.7,603.5,383.7,523.9
				L383.7,523.9z"/>
			
				<linearGradient id="SVGID_27_" gradientUnits="userSpaceOnUse" x1="1220.5023" y1="-545.5066" x2="1220.5023" y2="541.7534" gradientTransform="matrix(0.6215 0 0 -0.6215 -224.6701 338.4574)">
				<stop  offset="0" style="stop-color:#611DAC"/>
				<stop  offset="1" style="stop-color:#AE1ED2"/>
			</linearGradient>
			<path class="st114" d="M384.5,523.7c0-167.9,0-335.7,0-503.6c0-10.1,8.6-18.4,19.1-18.4c86.9,0,173.8,0,260.7,0
				c10.5,0,19.1,8.3,19.1,18.4c0,167.9,0,335.7,0,503.6c0,79.1-67.3,143.8-149.4,143.8C451.9,667.5,384.5,602.9,384.5,523.7
				L384.5,523.7z"/>
			
				<linearGradient id="SVGID_28_" gradientUnits="userSpaceOnUse" x1="1220.5024" y1="-544.0566" x2="1220.5024" y2="540.3334" gradientTransform="matrix(0.6215 0 0 -0.6215 -224.6701 338.4574)">
				<stop  offset="0" style="stop-color:#631EAE"/>
				<stop  offset="1" style="stop-color:#B021D4"/>
			</linearGradient>
			<path class="st115" d="M385.2,523.6c0-167.6,0-335.1,0-502.7c0-10,8.6-18.3,19-18.3c86.4,0,172.9,0,259.3,0
				c10.4,0,19,8.2,19,18.3c0,167.6,0,335.1,0,502.7c0,78.7-66.9,143.1-148.7,143.1C452.3,666.7,385.2,602.4,385.2,523.6L385.2,523.6
				z"/>
			
				<linearGradient id="SVGID_29_" gradientUnits="userSpaceOnUse" x1="1220.4923" y1="-542.5967" x2="1220.4923" y2="538.9233" gradientTransform="matrix(0.6215 0 0 -0.6215 -224.6701 338.4574)">
				<stop  offset="0" style="stop-color:#661EB1"/>
				<stop  offset="1" style="stop-color:#B223D5"/>
			</linearGradient>
			<path class="st116" d="M386,523.4c0-167.2,0-334.5,0-501.8c0-10,8.5-18.2,18.9-18.2c86,0,172,0,258,0c10.4,0,18.9,8.2,18.9,18.2
				c0,167.3,0,334.5,0,501.8c0,78.3-66.6,142.3-147.9,142.3C452.7,665.8,386,601.9,386,523.4L386,523.4z"/>
			
				<linearGradient id="SVGID_30_" gradientUnits="userSpaceOnUse" x1="1220.5173" y1="-541.1466" x2="1220.5173" y2="537.5133" gradientTransform="matrix(0.6215 0 0 -0.6215 -224.6701 338.4574)">
				<stop  offset="0" style="stop-color:#681FB3"/>
				<stop  offset="1" style="stop-color:#B426D6"/>
			</linearGradient>
			<path class="st117" d="M386.8,523.3c0-166.9,0-333.9,0-500.8c0-9.9,8.5-18.1,18.8-18.1c85.6,0,171.1,0,256.7,0
				c10.3,0,18.8,8.2,18.8,18.1c0,166.9,0,333.9,0,500.8c0,77.9-66.2,141.6-147.1,141.6C453.1,664.9,386.8,601.3,386.8,523.3
				L386.8,523.3z"/>
			
				<linearGradient id="SVGID_31_" gradientUnits="userSpaceOnUse" x1="1220.5023" y1="-539.6866" x2="1220.5023" y2="536.0934" gradientTransform="matrix(0.6215 0 0 -0.6215 -224.6701 338.4574)">
				<stop  offset="0" style="stop-color:#6B1FB5"/>
				<stop  offset="1" style="stop-color:#B628D7"/>
			</linearGradient>
			<path class="st118" d="M387.5,523.2c0-166.6,0-333.3,0-499.9c0-9.9,8.4-18,18.7-18c85.1,0,170.2,0,255.3,0
				c10.3,0,18.7,8.1,18.7,18c0,166.6,0,333.3,0,499.9c0,77.5-65.9,140.9-146.4,140.9C453.6,664,387.5,600.8,387.5,523.2L387.5,523.2
				z"/>
			
				<linearGradient id="SVGID_32_" gradientUnits="userSpaceOnUse" x1="1220.5123" y1="-538.2267" x2="1220.5123" y2="534.6833" gradientTransform="matrix(0.6215 0 0 -0.6215 -224.6701 338.4574)">
				<stop  offset="0" style="stop-color:#6D20B7"/>
				<stop  offset="1" style="stop-color:#B82BD8"/>
			</linearGradient>
			<path class="st119" d="M388.3,523c0-166.3,0-332.7,0-499c0-9.8,8.4-17.9,18.6-17.9c84.7,0,169.3,0,254,0
				c10.2,0,18.6,8.1,18.6,17.9c0,166.3,0,332.7,0,499c0,77-65.5,140.1-145.6,140.1C454,663.2,388.3,600.2,388.3,523z"/>
			
				<linearGradient id="SVGID_33_" gradientUnits="userSpaceOnUse" x1="1220.5023" y1="-536.7766" x2="1220.5023" y2="533.2634" gradientTransform="matrix(0.6215 0 0 -0.6215 -224.6701 338.4574)">
				<stop  offset="0" style="stop-color:#6F20B9"/>
				<stop  offset="1" style="stop-color:#BA2DDA"/>
			</linearGradient>
			<path class="st120" d="M389.1,522.9c0-166,0-332,0-498.1c0-9.8,8.3-17.8,18.5-17.8C491.8,7,576,7,660.2,7
				c10.1,0,18.5,8,18.5,17.8c0,166,0,332,0,498.1c0,76.6-65.2,139.4-144.8,139.4C454.4,662.3,389.1,599.7,389.1,522.9z"/>
			
				<linearGradient id="SVGID_34_" gradientUnits="userSpaceOnUse" x1="1220.5173" y1="-535.3167" x2="1220.5173" y2="531.8534" gradientTransform="matrix(0.6215 0 0 -0.6215 -224.6701 338.4574)">
				<stop  offset="0" style="stop-color:#7221BB"/>
				<stop  offset="1" style="stop-color:#BC30DB"/>
			</linearGradient>
			<path class="st121" d="M389.8,522.7c0-165.7,0-331.4,0-497.1c0-9.7,8.3-17.7,18.4-17.7c83.8,0,167.5,0,251.3,0
				c10.1,0,18.4,8,18.4,17.7c0,165.7,0,331.4,0,497.1c0,76.2-64.8,138.6-144,138.6C454.8,661.4,389.8,599.1,389.8,522.7L389.8,522.7
				z"/>
			
				<linearGradient id="SVGID_35_" gradientUnits="userSpaceOnUse" x1="1220.5073" y1="-533.8566" x2="1220.5073" y2="530.4434" gradientTransform="matrix(0.6215 0 0 -0.6215 -224.6701 338.4574)">
				<stop  offset="0" style="stop-color:#7421BD"/>
				<stop  offset="1" style="stop-color:#BE32DC"/>
			</linearGradient>
			<path class="st122" d="M390.6,522.6c0-165.4,0-330.8,0-496.2c0-9.7,8.3-17.6,18.3-17.6c83.3,0,166.6,0,250,0
				c10,0,18.3,7.9,18.3,17.6c0,165.4,0,330.8,0,496.2c0,75.8-64.5,137.9-143.3,137.9C455.2,660.5,390.6,598.6,390.6,522.6
				L390.6,522.6z"/>
			
				<linearGradient id="SVGID_36_" gradientUnits="userSpaceOnUse" x1="1220.5125" y1="-532.4066" x2="1220.5125" y2="529.0233" gradientTransform="matrix(0.6215 0 0 -0.6215 -224.6701 338.4574)">
				<stop  offset="0" style="stop-color:#7722C0"/>
				<stop  offset="1" style="stop-color:#BF35DD"/>
			</linearGradient>
			<path class="st123" d="M391.4,522.5c0-165.1,0-330.2,0-495.3c0-9.6,8.2-17.5,18.2-17.5c82.9,0,165.8,0,248.6,0
				c10,0,18.2,7.9,18.2,17.5c0,165.1,0,330.2,0,495.3c0,75.4-64.2,137.2-142.5,137.2C455.7,659.6,391.4,598,391.4,522.5z"/>
			
				<linearGradient id="SVGID_37_" gradientUnits="userSpaceOnUse" x1="1220.5024" y1="-530.9467" x2="1220.5024" y2="527.6134" gradientTransform="matrix(0.6215 0 0 -0.6215 -224.6701 338.4574)">
				<stop  offset="0" style="stop-color:#7922C2"/>
				<stop  offset="1" style="stop-color:#C137DE"/>
			</linearGradient>
			<path class="st124" d="M392.1,522.3c0-164.8,0-329.6,0-494.4c0-9.6,8.2-17.4,18.1-17.4c82.4,0,164.9,0,247.3,0
				c9.9,0,18.1,7.9,18.1,17.4c0,164.8,0,329.6,0,494.4c0,75-63.8,136.4-141.7,136.4C456.1,658.8,392.1,597.5,392.1,522.3
				L392.1,522.3z"/>
			
				<linearGradient id="SVGID_38_" gradientUnits="userSpaceOnUse" x1="1220.5173" y1="-529.4866" x2="1220.5173" y2="526.1934" gradientTransform="matrix(0.6215 0 0 -0.6215 -224.6701 338.4574)">
				<stop  offset="0" style="stop-color:#7C23C4"/>
				<stop  offset="1" style="stop-color:#C33ADF"/>
			</linearGradient>
			<path class="st125" d="M392.9,522.2c0-164.5,0-329,0-493.4c0-9.5,8.1-17.3,18-17.3c82,0,164,0,245.9,0c9.9,0,18,7.8,18,17.3
				c0,164.5,0,329,0,493.4c0,74.6-63.5,135.7-141,135.7C456.5,657.9,392.9,596.9,392.9,522.2L392.9,522.2z"/>
			
				<linearGradient id="SVGID_39_" gradientUnits="userSpaceOnUse" x1="1220.5073" y1="-528.0366" x2="1220.5073" y2="524.7834" gradientTransform="matrix(0.6215 0 0 -0.6215 -224.6701 338.4574)">
				<stop  offset="0" style="stop-color:#7E23C6"/>
				<stop  offset="1" style="stop-color:#C53CE1"/>
			</linearGradient>
			<path class="st126" d="M393.7,522c0-164.2,0-328.3,0-492.5c0-9.5,8.1-17.2,17.9-17.2c81.5,0,163.1,0,244.6,0
				c9.8,0,17.9,7.8,17.9,17.2c0,164.2,0,328.3,0,492.5c0,74.2-63.1,135-140.2,135C456.9,657,393.7,596.4,393.7,522L393.7,522z"/>
			
				<linearGradient id="SVGID_40_" gradientUnits="userSpaceOnUse" x1="1220.5125" y1="-526.5767" x2="1220.5125" y2="523.3634" gradientTransform="matrix(0.6215 0 0 -0.6215 -224.6701 338.4574)">
				<stop  offset="0" style="stop-color:#8024C8"/>
				<stop  offset="1" style="stop-color:#C73FE2"/>
			</linearGradient>
			<path class="st127" d="M394.4,521.9c0-163.9,0-327.7,0-491.6c0-9.4,8-17.1,17.8-17.1c81.1,0,162.2,0,243.3,0
				c9.8,0,17.8,7.7,17.8,17.1c0,163.9,0,327.7,0,491.6c0,73.8-62.8,134.2-139.4,134.2C457.4,656.1,394.4,595.8,394.4,521.9
				L394.4,521.9z"/>
			
				<linearGradient id="SVGID_41_" gradientUnits="userSpaceOnUse" x1="1220.5023" y1="-525.1166" x2="1220.5023" y2="521.9534" gradientTransform="matrix(0.6215 0 0 -0.6215 -224.6701 338.4574)">
				<stop  offset="0" style="stop-color:#8324CA"/>
				<stop  offset="1" style="stop-color:#C941E3"/>
			</linearGradient>
			<path class="st128" d="M395.2,521.8c0-163.6,0-327.1,0-490.7c0-9.4,8-17,17.7-17c80.6,0,161.3,0,241.9,0c9.7,0,17.7,7.7,17.7,17
				c0,163.6,0,327.1,0,490.7c0,73.4-62.4,133.5-138.7,133.5C457.8,655.2,395.2,595.3,395.2,521.8z"/>
			
				<linearGradient id="SVGID_42_" gradientUnits="userSpaceOnUse" x1="1220.4923" y1="-523.6666" x2="1220.4923" y2="520.5433" gradientTransform="matrix(0.6215 0 0 -0.6215 -224.6701 338.4574)">
				<stop  offset="0" style="stop-color:#8525CC"/>
				<stop  offset="1" style="stop-color:#CB44E4"/>
			</linearGradient>
			<path class="st129" d="M396,521.6c0-163.2,0-326.5,0-489.7c0-9.3,7.9-16.9,17.6-16.9c80.2,0,160.4,0,240.6,0
				c9.7,0,17.6,7.6,17.6,16.9c0,163.2,0,326.5,0,489.7c0,73-62.1,132.7-137.9,132.7C458.2,654.4,396,594.7,396,521.6L396,521.6z"/>
			
				<linearGradient id="SVGID_43_" gradientUnits="userSpaceOnUse" x1="1220.5173" y1="-522.2067" x2="1220.5173" y2="519.1234" gradientTransform="matrix(0.6215 0 0 -0.6215 -224.6701 338.4574)">
				<stop  offset="0" style="stop-color:#8825CF"/>
				<stop  offset="1" style="stop-color:#CD46E5"/>
			</linearGradient>
			<path class="st130" d="M396.8,521.5c0-162.9,0-325.9,0-488.8c0-9.3,7.9-16.9,17.5-16.9c79.8,0,159.5,0,239.2,0
				c9.6,0,17.5,7.6,17.5,16.9c0,162.9,0,325.9,0,488.8c0,72.6-61.7,132-137.1,132C458.6,653.5,396.8,594.2,396.8,521.5L396.8,521.5z
				"/>
			
				<linearGradient id="SVGID_44_" gradientUnits="userSpaceOnUse" x1="1220.5024" y1="-520.7566" x2="1220.5024" y2="517.7134" gradientTransform="matrix(0.6215 0 0 -0.6215 -224.6701 338.4574)">
				<stop  offset="0" style="stop-color:#8A26D1"/>
				<stop  offset="1" style="stop-color:#CF49E7"/>
			</linearGradient>
			<path class="st131" d="M397.5,521.3c0-162.6,0-325.3,0-487.9c0-9.2,7.9-16.8,17.4-16.8c79.3,0,158.6,0,237.9,0
				c9.6,0,17.4,7.6,17.4,16.8c0,162.6,0,325.3,0,487.9c0,72.2-61.4,131.3-136.4,131.3C459,652.6,397.5,593.6,397.5,521.3
				L397.5,521.3z"/>
			
				<linearGradient id="SVGID_45_" gradientUnits="userSpaceOnUse" x1="1220.5123" y1="-519.2966" x2="1220.5123" y2="516.2933" gradientTransform="matrix(0.6215 0 0 -0.6215 -224.6701 338.4574)">
				<stop  offset="0" style="stop-color:#8D26D3"/>
				<stop  offset="1" style="stop-color:#D14BE8"/>
			</linearGradient>
			<path class="st132" d="M398.3,521.2c0-162.3,0-324.6,0-487c0-9.1,7.8-16.7,17.3-16.7c78.9,0,157.7,0,236.6,0
				c9.5,0,17.3,7.5,17.3,16.7c0,162.3,0,324.6,0,487c0,71.8-61,130.5-135.6,130.5C459.5,651.7,398.3,593.1,398.3,521.2L398.3,521.2z
				"/>
			
				<linearGradient id="SVGID_46_" gradientUnits="userSpaceOnUse" x1="-591.437" y1="873.7184" x2="-591.437" y2="874.7333" gradientTransform="matrix(269.6605 0 0 -632.3857 160021.0625 553187.25)">
				<stop  offset="0" style="stop-color:#8F27D5"/>
				<stop  offset="1" style="stop-color:#D34EE9"/>
			</linearGradient>
			<path class="st133" d="M399.1,521.1V35c0-9.1,7.8-16.6,17.2-16.6h235.2c9.4,0,17.2,7.5,17.2,16.6v486
				c0,71.4-60.7,129.8-134.8,129.8C459.9,650.8,399.1,592.6,399.1,521.1L399.1,521.1z"/>
		</g>
		<g id="_2514848531040">
			
				<linearGradient id="SVGID_47_" gradientUnits="userSpaceOnUse" x1="-591.437" y1="873.7184" x2="-591.437" y2="874.7333" gradientTransform="matrix(269.6605 0 0 -632.3857 160021.0625 553187.25)">
				<stop  offset="0" style="stop-color:#8F27D5"/>
				<stop  offset="1" style="stop-color:#D34EE9"/>
			</linearGradient>
			<path class="st134" d="M399.1,521.1V35c0-9.1,7.8-16.6,17.2-16.6h235.2c9.4,0,17.2,7.5,17.2,16.6v486
				c0,71.4-60.7,129.8-134.8,129.8C459.9,650.8,399.1,592.6,399.1,521.1L399.1,521.1z"/>
			
				<linearGradient id="SVGID_48_" gradientUnits="userSpaceOnUse" x1="1220.5123" y1="-516.3666" x2="1220.5123" y2="513.4534" gradientTransform="matrix(0.6215 0 0 -0.6215 -224.6701 338.4574)">
				<stop  offset="0" style="stop-color:#9128D7"/>
				<stop  offset="1" style="stop-color:#D451EA"/>
			</linearGradient>
			<path class="st135" d="M399.8,520.5c0-161.6,0-323.1,0-484.7c0-9.1,7.7-16.5,17.1-16.5c78,0,155.9,0,233.9,0
				c9.4,0,17.1,7.5,17.1,16.5c0,161.6,0,323.1,0,484.7c0,71.2-60.4,129.4-134.1,129.4C460.3,650,399.8,591.8,399.8,520.5
				L399.8,520.5z"/>
			
				<linearGradient id="SVGID_49_" gradientUnits="userSpaceOnUse" x1="1220.5023" y1="-514.8966" x2="1220.5023" y2="512.0233" gradientTransform="matrix(0.6215 0 0 -0.6215 -224.6701 338.4574)">
				<stop  offset="0" style="stop-color:#922AD9"/>
				<stop  offset="1" style="stop-color:#D655EB"/>
			</linearGradient>
			<path class="st136" d="M400.6,520c0-161.1,0-322.2,0-483.3c0-9,7.7-16.5,17-16.5c77.5,0,155.1,0,232.6,0c9.3,0,17,7.4,17,16.5
				c0,161.1,0,322.2,0,483.3c0,71-60,129.1-133.3,129.1C460.7,649.1,400.6,591.1,400.6,520L400.6,520z"/>
			
				<linearGradient id="SVGID_50_" gradientUnits="userSpaceOnUse" x1="1220.5173" y1="-513.4166" x2="1220.5173" y2="510.5934" gradientTransform="matrix(0.6215 0 0 -0.6215 -224.6701 338.4574)">
				<stop  offset="0" style="stop-color:#942BDB"/>
				<stop  offset="1" style="stop-color:#D758EC"/>
			</linearGradient>
			<path class="st137" d="M401.3,519.5c0-160.6,0-321.3,0-481.9c0-9,7.6-16.4,16.9-16.4c77.1,0,154.2,0,231.3,0
				c9.3,0,16.9,7.4,16.9,16.4c0,160.6,0,321.3,0,481.9c0,70.8-59.7,128.7-132.6,128.7C461.1,648.2,401.3,590.4,401.3,519.5
				L401.3,519.5z"/>
			
				<linearGradient id="SVGID_51_" gradientUnits="userSpaceOnUse" x1="1220.5123" y1="-511.9467" x2="1220.5123" y2="509.1633" gradientTransform="matrix(0.6215 0 0 -0.6215 -224.6701 338.4574)">
				<stop  offset="0" style="stop-color:#962DDC"/>
				<stop  offset="1" style="stop-color:#D95BED"/>
			</linearGradient>
			<path class="st138" d="M402.1,519c0-160.2,0-320.4,0-480.6c0-9,7.6-16.4,16.8-16.4c76.7,0,153.3,0,229.9,0
				c9.2,0,16.8,7.4,16.8,16.4c0,160.2,0,320.4,0,480.6c0,70.6-59.3,128.3-131.8,128.3C461.5,647.3,402.1,589.6,402.1,519L402.1,519z
				"/>
			
				<linearGradient id="SVGID_52_" gradientUnits="userSpaceOnUse" x1="1220.5023" y1="-510.4767" x2="1220.5023" y2="507.7334" gradientTransform="matrix(0.6215 0 0 -0.6215 -224.6701 338.4574)">
				<stop  offset="0" style="stop-color:#972EDE"/>
				<stop  offset="1" style="stop-color:#DA5FEE"/>
			</linearGradient>
			<path class="st139" d="M402.8,518.4c0-159.7,0-319.5,0-479.2c0-9,7.6-16.3,16.7-16.3c76.2,0,152.4,0,228.6,0
				c9.2,0,16.7,7.4,16.7,16.3c0,159.7,0,319.5,0,479.2c0,70.4-59,128-131,128C462,646.4,402.8,588.9,402.8,518.4L402.8,518.4z"/>
			
				<linearGradient id="SVGID_53_" gradientUnits="userSpaceOnUse" x1="1220.5073" y1="-508.9966" x2="1220.5073" y2="506.3033" gradientTransform="matrix(0.6215 0 0 -0.6215 -224.6701 338.4574)">
				<stop  offset="0" style="stop-color:#992FE0"/>
				<stop  offset="1" style="stop-color:#DC62EF"/>
			</linearGradient>
			<path class="st140" d="M403.6,517.9c0-159.3,0-318.6,0-477.8c0-8.9,7.5-16.3,16.6-16.3c75.8,0,151.5,0,227.3,0
				c9.1,0,16.6,7.4,16.6,16.3c0,159.3,0,318.6,0,477.8c0,70.2-58.6,127.6-130.3,127.6C462.4,645.5,403.6,588.2,403.6,517.9
				L403.6,517.9z"/>
			
				<linearGradient id="SVGID_54_" gradientUnits="userSpaceOnUse" x1="1220.5022" y1="-507.5266" x2="1220.5022" y2="504.8634" gradientTransform="matrix(0.6215 0 0 -0.6215 -224.6701 338.4574)">
				<stop  offset="0" style="stop-color:#9B31E2"/>
				<stop  offset="1" style="stop-color:#DD65F0"/>
			</linearGradient>
			<path class="st141" d="M404.4,517.4c0-158.8,0-317.6,0-476.5c0-8.9,7.5-16.2,16.5-16.2c75.3,0,150.7,0,226,0
				c9.1,0,16.5,7.3,16.5,16.2c0,158.8,0,317.6,0,476.5c0,70-58.3,127.2-129.5,127.2C462.8,644.6,404.4,587.5,404.4,517.4
				L404.4,517.4z"/>
			
				<linearGradient id="SVGID_55_" gradientUnits="userSpaceOnUse" x1="1220.5023" y1="-506.0466" x2="1220.5023" y2="503.4333" gradientTransform="matrix(0.6215 0 0 -0.6215 -224.6701 338.4574)">
				<stop  offset="0" style="stop-color:#9C32E4"/>
				<stop  offset="1" style="stop-color:#DE69F1"/>
			</linearGradient>
			<path class="st142" d="M405.1,516.9c0-158.4,0-316.7,0-475.1c0-8.9,7.4-16.2,16.4-16.2c74.9,0,149.8,0,224.7,0
				c9,0,16.4,7.3,16.4,16.2c0,158.4,0,316.7,0,475.1c0,69.8-58,126.9-128.8,126.9C463.2,643.7,405.1,586.8,405.1,516.9L405.1,516.9z
				"/>
			
				<linearGradient id="SVGID_56_" gradientUnits="userSpaceOnUse" x1="1220.5023" y1="-504.5767" x2="1220.5023" y2="502.0034" gradientTransform="matrix(0.6215 0 0 -0.6215 -224.6701 338.4574)">
				<stop  offset="0" style="stop-color:#9E33E6"/>
				<stop  offset="1" style="stop-color:#E06CF2"/>
			</linearGradient>
			<path class="st143" d="M405.9,516.3c0-157.9,0-315.8,0-473.7c0-8.9,7.4-16.2,16.3-16.2c74.4,0,148.9,0,223.3,0
				c9,0,16.3,7.3,16.3,16.2c0,157.9,0,315.8,0,473.7c0,69.6-57.6,126.5-128,126.5C463.6,642.8,405.9,586,405.9,516.3L405.9,516.3z"
				/>
			
				<linearGradient id="SVGID_57_" gradientUnits="userSpaceOnUse" x1="1220.5123" y1="-503.1066" x2="1220.5123" y2="500.5734" gradientTransform="matrix(0.6215 0 0 -0.6215 -224.6701 338.4574)">
				<stop  offset="0" style="stop-color:#A035E8"/>
				<stop  offset="1" style="stop-color:#E16FF3"/>
			</linearGradient>
			<path class="st144" d="M406.6,515.8c0-157.5,0-314.9,0-472.4c0-8.8,7.3-16.1,16.3-16.1c74,0,148,0,222,0
				c8.9,0,16.3,7.3,16.3,16.1c0,157.5,0,314.9,0,472.4c0,69.4-57.3,126.1-127.3,126.1C464,642,406.6,585.3,406.6,515.8z"/>
			
				<linearGradient id="SVGID_58_" gradientUnits="userSpaceOnUse" x1="1220.5123" y1="-501.6266" x2="1220.5123" y2="499.1434" gradientTransform="matrix(0.6215 0 0 -0.6215 -224.6701 338.4574)">
				<stop  offset="0" style="stop-color:#A136E9"/>
				<stop  offset="1" style="stop-color:#E373F5"/>
			</linearGradient>
			<path class="st145" d="M407.4,515.3c0-157,0-314,0-471c0-8.8,7.3-16.1,16.2-16.1c73.6,0,147.1,0,220.7,0
				c8.9,0,16.2,7.2,16.2,16.1c0,157,0,314,0,471c0,69.1-56.9,125.8-126.5,125.8C464.5,641.1,407.4,584.6,407.4,515.3L407.4,515.3z"
				/>
			
				<linearGradient id="SVGID_59_" gradientUnits="userSpaceOnUse" x1="1220.5173" y1="-500.1566" x2="1220.5173" y2="497.7134" gradientTransform="matrix(0.6215 0 0 -0.6215 -224.6701 338.4574)">
				<stop  offset="0" style="stop-color:#A338EB"/>
				<stop  offset="1" style="stop-color:#E476F6"/>
			</linearGradient>
			<path class="st146" d="M408.1,514.8c0-156.5,0-313.1,0-469.6c0-8.8,7.2-16,16.1-16c73.1,0,146.2,0,219.4,0
				c8.8,0,16.1,7.2,16.1,16c0,156.5,0,313.1,0,469.6c0,69-56.6,125.4-125.7,125.4C464.9,640.2,408.2,583.8,408.1,514.8L408.1,514.8z
				"/>
			
				<linearGradient id="SVGID_60_" gradientUnits="userSpaceOnUse" x1="1220.5123" y1="-498.6866" x2="1220.5123" y2="496.2834" gradientTransform="matrix(0.6215 0 0 -0.6215 -224.6701 338.4574)">
				<stop  offset="0" style="stop-color:#A539ED"/>
				<stop  offset="1" style="stop-color:#E679F7"/>
			</linearGradient>
			<path class="st147" d="M408.9,514.2c0-156.1,0-312.2,0-468.3c0-8.8,7.2-16,16-16c72.7,0,145.4,0,218.1,0c8.8,0,16,7.2,16,16
				c0,156.1,0,312.2,0,468.3c0,68.8-56.3,125-125,125C465.3,639.3,408.9,583.1,408.9,514.2L408.9,514.2z"/>
			
				<linearGradient id="SVGID_61_" gradientUnits="userSpaceOnUse" x1="1220.5023" y1="-497.2067" x2="1220.5023" y2="494.8534" gradientTransform="matrix(0.6215 0 0 -0.6215 -224.6701 338.4574)">
				<stop  offset="0" style="stop-color:#A63AEF"/>
				<stop  offset="1" style="stop-color:#E77DF8"/>
			</linearGradient>
			<path class="st148" d="M409.7,513.7c0-155.6,0-311.3,0-466.9c0-8.7,7.2-15.9,15.9-15.9c72.2,0,144.5,0,216.7,0
				c8.7,0,15.9,7.2,15.9,15.9c0,155.6,0,311.3,0,466.9c0,68.5-55.9,124.7-124.2,124.7C465.7,638.4,409.7,582.4,409.7,513.7z"/>
			
				<linearGradient id="SVGID_62_" gradientUnits="userSpaceOnUse" x1="1220.5073" y1="-495.7366" x2="1220.5073" y2="493.4233" gradientTransform="matrix(0.6215 0 0 -0.6215 -224.6701 338.4574)">
				<stop  offset="0" style="stop-color:#A83CF1"/>
				<stop  offset="1" style="stop-color:#E880F9"/>
			</linearGradient>
			<path class="st149" d="M410.4,513.2c0-155.2,0-310.4,0-465.5c0-8.7,7.1-15.9,15.8-15.9c71.8,0,143.6,0,215.4,0
				c8.7,0,15.8,7.2,15.8,15.9c0,155.2,0,310.4,0,465.5c0,68.3-55.6,124.3-123.5,124.3C466.1,637.5,410.4,581.7,410.4,513.2
				L410.4,513.2z"/>
			
				<linearGradient id="SVGID_63_" gradientUnits="userSpaceOnUse" x1="1220.5023" y1="-494.2666" x2="1220.5023" y2="491.9934" gradientTransform="matrix(0.6215 0 0 -0.6215 -224.6701 338.4574)">
				<stop  offset="0" style="stop-color:#AA3DF3"/>
				<stop  offset="1" style="stop-color:#EA83FA"/>
			</linearGradient>
			<path class="st150" d="M411.2,512.7c0-154.7,0-309.4,0-464.2c0-8.7,7.1-15.8,15.7-15.8c71.4,0,142.7,0,214.1,0
				c8.6,0,15.7,7.1,15.7,15.8c0,154.7,0,309.4,0,464.2c0,68.1-55.2,123.9-122.7,123.9C466.5,636.6,411.2,580.9,411.2,512.7
				L411.2,512.7z"/>
			
				<linearGradient id="SVGID_64_" gradientUnits="userSpaceOnUse" x1="1220.5123" y1="-492.7866" x2="1220.5123" y2="490.5634" gradientTransform="matrix(0.6215 0 0 -0.6215 -224.6701 338.4574)">
				<stop  offset="0" style="stop-color:#AB3EF5"/>
				<stop  offset="1" style="stop-color:#EB87FB"/>
			</linearGradient>
			<path class="st151" d="M411.9,512.2c0-154.3,0-308.5,0-462.8c0-8.7,7-15.8,15.6-15.8c70.9,0,141.8,0,212.8,0
				c8.5,0,15.6,7.1,15.6,15.8c0,154.3,0,308.5,0,462.8c0,67.9-54.9,123.6-122,123.6C467,635.7,411.9,580.2,411.9,512.2L411.9,512.2z
				"/>
			
				<linearGradient id="SVGID_65_" gradientUnits="userSpaceOnUse" x1="1220.5023" y1="-491.3167" x2="1220.5023" y2="489.1334" gradientTransform="matrix(0.6215 0 0 -0.6215 -224.6701 338.4574)">
				<stop  offset="0" style="stop-color:#AD40F6"/>
				<stop  offset="1" style="stop-color:#ED8AFC"/>
			</linearGradient>
			<path class="st152" d="M412.7,511.6c0-153.8,0-307.6,0-461.4c0-8.6,7-15.7,15.5-15.7c70.5,0,141,0,211.4,0
				c8.5,0,15.5,7.1,15.5,15.7c0,153.8,0,307.6,0,461.4c0,67.7-54.6,123.2-121.2,123.2C467.4,634.8,412.7,579.5,412.7,511.6
				L412.7,511.6z"/>
			
				<linearGradient id="SVGID_66_" gradientUnits="userSpaceOnUse" x1="1220.5173" y1="-489.8367" x2="1220.5173" y2="487.6934" gradientTransform="matrix(0.6215 0 0 -0.6215 -224.6701 338.4574)">
				<stop  offset="0" style="stop-color:#AF41F8"/>
				<stop  offset="1" style="stop-color:#EE8DFD"/>
			</linearGradient>
			<path class="st153" d="M413.4,511.1c0-153.4,0-306.7,0-460.1c0-8.6,6.9-15.7,15.4-15.7c70,0,140.1,0,210.1,0
				c8.4,0,15.4,7.1,15.4,15.7c0,153.4,0,306.7,0,460.1c0,67.5-54.2,122.8-120.4,122.8C467.8,634,413.5,578.8,413.4,511.1
				L413.4,511.1z"/>
			
				<linearGradient id="SVGID_67_" gradientUnits="userSpaceOnUse" x1="1220.5123" y1="-488.3666" x2="1220.5123" y2="486.2634" gradientTransform="matrix(0.6215 0 0 -0.6215 -224.6701 338.4574)">
				<stop  offset="0" style="stop-color:#B043FA"/>
				<stop  offset="1" style="stop-color:#F091FE"/>
			</linearGradient>
			<path class="st154" d="M414.2,510.6c0-152.9,0-305.8,0-458.7c0-8.6,6.9-15.6,15.3-15.6c69.6,0,139.2,0,208.8,0
				c8.4,0,15.3,7.1,15.3,15.6c0,152.9,0,305.8,0,458.7c0,67.3-53.9,122.5-119.7,122.5C468.2,633.1,414.2,578,414.2,510.6
				L414.2,510.6z"/>
			
				<linearGradient id="SVGID_68_" gradientUnits="userSpaceOnUse" x1="1220.4924" y1="-486.8966" x2="1220.4924" y2="484.8334" gradientTransform="matrix(0.6215 0 0 -0.6215 -224.6701 338.4574)">
				<stop  offset="0" style="stop-color:#B244FC"/>
				<stop  offset="1" style="stop-color:#F194FF"/>
			</linearGradient>
			<path class="st155" d="M415,510.1V52.7c0-8.6,6.8-15.6,15.2-15.6h207.5c8.3,0,15.2,7,15.2,15.6v457.3
				c0,67.1-53.5,122.1-118.9,122.1C468.6,632.2,415,577.3,415,510.1L415,510.1z"/>
		</g>
		<defs>
			<filter id="Adobe_OpacityMaskFilter_9_" filterUnits="userSpaceOnUse" x="382.9" y="0" width="301.9" height="669.3">
				<feColorMatrix  type="matrix" values="1 0 0 0 0  0 1 0 0 0  0 0 1 0 0  0 0 0 1 0"/>
			</filter>
		</defs>
		<mask maskUnits="userSpaceOnUse" x="382.9" y="0" width="301.9" height="669.3" id="id22_1_">
			
				<linearGradient id="SVGID_69_" gradientUnits="userSpaceOnUse" x1="897.8322" y1="-4.5273" x2="1019.8122" y2="-0.4974" gradientTransform="matrix(0.6215 0 0 -0.6215 -224.6701 338.4574)">
				<stop  offset="0" style="stop-color:#FFFFFF"/>
				<stop  offset="1" style="stop-color:#FFFFFF;stop-opacity:0"/>
			</linearGradient>
			<rect x="382.9" y="0" class="st156" width="301.9" height="669.3"/>
		</mask>
		<path class="st157" d="M382.9,524V18.6c0-10.2,8.7-18.6,19.3-18.6h263.4c10.6,0,19.3,8.4,19.3,18.6V524
			c0,79.9-67.9,145.3-151,145.3C451,669.3,382.9,604,382.9,524z"/>
		<defs>
			<filter id="Adobe_OpacityMaskFilter_10_" filterUnits="userSpaceOnUse" x="382.9" y="0" width="301.9" height="669.3">
				<feColorMatrix  type="matrix" values="1 0 0 0 0  0 1 0 0 0  0 0 1 0 0  0 0 0 1 0"/>
			</filter>
		</defs>
		<mask maskUnits="userSpaceOnUse" x="382.9" y="0" width="301.9" height="669.3" id="id24_1_">
			
				<linearGradient id="SVGID_70_" gradientUnits="userSpaceOnUse" x1="1220.5123" y1="570.2634" x2="1220.5123" y2="487.0434" gradientTransform="matrix(0.6215 0 0 -0.6215 -224.6701 338.4574)">
				<stop  offset="0" style="stop-color:#FFFFFF"/>
				<stop  offset="1" style="stop-color:#FFFFFF;stop-opacity:0"/>
			</linearGradient>
			<rect x="382.9" y="0" class="st158" width="301.9" height="669.3"/>
		</mask>
		<path class="st159" d="M684.8,524V18.6c0-10.2-8.7-18.6-19.3-18.6H402.2c-10.6,0-19.3,8.4-19.3,18.6V524
			c0,79.9,67.9,145.3,151,145.3C616.7,669.3,684.8,604,684.8,524z"/>
		<defs>
			<filter id="Adobe_OpacityMaskFilter_11_" filterUnits="userSpaceOnUse" x="382.9" y="0" width="301.9" height="669.3">
				<feColorMatrix  type="matrix" values="1 0 0 0 0  0 1 0 0 0  0 0 1 0 0  0 0 0 1 0"/>
			</filter>
		</defs>
		<mask maskUnits="userSpaceOnUse" x="382.9" y="0" width="301.9" height="669.3" id="id26_1_">
			
				<linearGradient id="SVGID_71_" gradientUnits="userSpaceOnUse" x1="795.0751" y1="-396.136" x2="940.6951" y2="-258.446" gradientTransform="matrix(0.6215 0 0 -0.6215 -224.6701 338.4574)">
				<stop  offset="0" style="stop-color:#FFFFFF;stop-opacity:0.6706"/>
				<stop  offset="1" style="stop-color:#FFFFFF;stop-opacity:0"/>
			</linearGradient>
			<rect x="382.9" y="0" class="st160" width="301.9" height="669.3"/>
		</mask>
		<path class="st161" d="M684.8,524V18.6c0-10.2-8.7-18.6-19.3-18.6H402.2c-10.6,0-19.3,8.4-19.3,18.6V524
			c0,79.9,67.9,145.3,151,145.3C616.7,669.3,684.8,604,684.8,524z"/>
		<g>
			<defs>
				<path id="SVGID_72_" d="M433.6,411.7V71.4c0-7.2,5.8-13.2,12.8-13.2h175c7,0,12.8,5.9,12.8,13.2v340.3
					c0,56.6-45.2,103-100.3,103C478.8,514.7,433.6,468.5,433.6,411.7L433.6,411.7z"/>
			</defs>
			<clipPath id="SVGID_73_">
				<use xlink:href="#SVGID_72_"  style="overflow:visible;"/>
			</clipPath>
			<g class="st162">
				<g>
					<defs>
						<filter id="Adobe_OpacityMaskFilter_12_" filterUnits="userSpaceOnUse" x="163.8" y="-442" width="740.1" height="1481.6">
							<feColorMatrix  type="matrix" values="1 0 0 0 0  0 1 0 0 0  0 0 1 0 0  0 0 0 1 0"/>
						</filter>
					</defs>
					<mask maskUnits="userSpaceOnUse" x="163.8" y="-442" width="740.1" height="1481.6" id="id29_1_">
						
							<linearGradient id="SVGID_74_" gradientUnits="userSpaceOnUse" x1="1220.5123" y1="496.1134" x2="1220.5123" y2="-308.7267" gradientTransform="matrix(0.6215 0 0 -0.6215 -224.6701 338.4574)">
							<stop  offset="0" style="stop-color:#FFFFFF;stop-opacity:0.3804"/>
							<stop  offset="1" style="stop-color:#FFFFFF"/>
						</linearGradient>
						<rect x="163.6" y="-442.3" class="st163" width="740.7" height="1482.2"/>
					</mask>
					<path class="st164" d="M163.8,289.2L895-442l8.9,8.9L172.7,298.1L163.8,289.2L163.8,289.2z M163.8,1030.7L895,299.5l8.9,8.9
						l-731.2,731.2L163.8,1030.7L163.8,1030.7z M163.8,989.5L895,258.3l8.9,8.9L172.7,998.4L163.8,989.5L163.8,989.5z M163.8,948.3
						L895,217.1l8.9,8.9L172.7,957.2L163.8,948.3L163.8,948.3z M163.8,907.1L895,175.9l8.9,8.9L172.7,916L163.8,907.1L163.8,907.1z
						 M163.8,865.9L895,134.7l8.9,8.9L172.7,874.8L163.8,865.9L163.8,865.9z M163.8,824.7L895,93.5l8.9,8.9L172.7,833.6L163.8,824.7
						L163.8,824.7z M163.8,783.5L895,52.3l8.9,8.9L172.7,792.4L163.8,783.5L163.8,783.5z M163.8,742.3L895,11.1l8.9,8.9L172.7,751.2
						L163.8,742.3L163.8,742.3z M163.8,701.1L895-30.1l8.9,8.9L172.7,710L163.8,701.1L163.8,701.1z M163.8,659.9L895-71.3l8.9,8.9
						L172.7,668.8L163.8,659.9L163.8,659.9z M163.8,618.7L895-112.5l8.9,8.9L172.7,627.6L163.8,618.7L163.8,618.7z M163.8,577.5
						L895-153.7l8.9,8.9L172.7,586.4L163.8,577.5L163.8,577.5z M163.8,536.3L895-194.9l8.9,8.9L172.7,545.3L163.8,536.3L163.8,536.3
						z M163.8,495.2L895-236l8.9,8.9L172.7,504.1L163.8,495.2L163.8,495.2z M163.8,454L895-277.2l8.9,8.9L172.7,462.9L163.8,454
						L163.8,454z M163.8,412.8L895-318.4l8.9,8.9L172.7,421.7L163.8,412.8L163.8,412.8z M163.8,371.6L895-359.6l8.9,8.9L172.7,380.5
						L163.8,371.6L163.8,371.6z M163.8,330.4L895-400.8l8.9,8.9L172.7,339.3L163.8,330.4L163.8,330.4z"/>
				</g>
			</g>
		</g>
		<path class="st50" d="M433.6,411.7V71.4c0-7.2,5.8-13.2,12.8-13.2h175c7,0,12.8,5.9,12.8,13.2v340.3c0,56.6-45.2,103-100.3,103
			C478.8,514.7,433.6,468.5,433.6,411.7L433.6,411.7z"/>
		<g>
			<path class="st165" d="M568.8,589.7c0-19.3-15.6-34.9-34.9-34.9s-34.9,15.6-34.9,34.9c0,19.3,15.6,34.9,34.9,34.9
				C553.2,624.7,568.8,609,568.8,589.7z"/>
			<path class="st166" d="M563.6,589.7c0-16.4-13.3-29.7-29.7-29.7c-16.4,0-29.7,13.3-29.7,29.7c0,16.4,13.3,29.7,29.7,29.7
				C550.3,619.4,563.6,606.1,563.6,589.7z"/>
			
				<radialGradient id="SVGID_75_" cx="1221.3723" cy="-380.1066" r="55.21" gradientTransform="matrix(0.6215 0 0 -0.6215 -224.6701 338.4574)" gradientUnits="userSpaceOnUse">
				<stop  offset="0" style="stop-color:#E6FAFF"/>
				<stop  offset="0.3686" style="stop-color:#7F859E"/>
				<stop  offset="0.702" style="stop-color:#3E4078"/>
				<stop  offset="1" style="stop-color:#5A39B8"/>
			</radialGradient>
			<path class="st167" d="M560.7,589.7c0-14.8-12-26.8-26.8-26.8c-14.8,0-26.8,12-26.8,26.8s12,26.8,26.8,26.8
				C548.7,616.6,560.7,604.6,560.7,589.7z"/>
			<path class="st168" d="M539.6,574.5c0-2.3-2.6-4.2-5.7-4.2c-3.2,0-5.7,1.9-5.7,4.2c0,2.3,2.6,4.2,5.7,4.2
				C537.1,578.8,539.6,576.9,539.6,574.5z"/>
		</g>
		<g>
			<path class="st169" d="M398.3,0.5h271.2c9.8,0,3.2,29.2-6.6,29.2H404.9C395,29.7,388.5,0.5,398.3,0.5L398.3,0.5z"/>
			<path class="st169" d="M398.7,0.8c90.2,0,180.3,0,270.5,0c9.7,0,3.3,28.5-6.4,28.5c-85.9,0-171.8,0-257.8,0
				C395.3,29.3,388.9,0.8,398.7,0.8z"/>
			<path class="st169" d="M399,1c89.9,0,179.8,0,269.7,0c9.5,0,3.4,27.9-6.1,27.9c-85.8,0-171.6,0-257.5,0C395.6,28.9,389.4,1,399,1
				L399,1z"/>
			<path class="st170" d="M399.4,1.2c89.7,0,179.3,0,269,0c9.4,0,3.5,27.3-5.9,27.3c-85.7,0-171.4,0-257.2,0
				C395.8,28.5,389.9,1.2,399.4,1.2L399.4,1.2z"/>
			<path class="st170" d="M399.8,1.4c89.4,0,178.9,0,268.3,0c9.3,0,3.6,26.6-5.7,26.6c-85.6,0-171.2,0-256.9,0
				C396.1,28,390.4,1.4,399.8,1.4L399.8,1.4z"/>
			<path class="st170" d="M400.1,1.6c89.2,0,178.4,0,267.6,0c9.2,0,3.7,26-5.5,26c-85.5,0-171,0-256.6,0
				C396.4,27.6,390.9,1.6,400.1,1.6L400.1,1.6z"/>
			<path class="st170" d="M400.5,1.9c88.9,0,177.9,0,266.8,0c9,0,3.8,25.4-5.3,25.4c-85.4,0-170.8,0-256.3,0
				C396.7,27.2,391.4,1.9,400.5,1.9L400.5,1.9z"/>
			<path class="st171" d="M400.8,2.1c88.7,0,177.4,0,266.1,0c8.9,0,3.9,24.7-5.1,24.7c-85.3,0-170.6,0-256,0
				C396.9,26.8,391.9,2.1,400.8,2.1z"/>
			<path class="st171" d="M401.2,2.3c88.5,0,176.9,0,265.4,0c8.8,0,3.9,24.1-4.9,24.1c-85.2,0-170.4,0-255.7,0
				C397.2,26.4,392.3,2.3,401.2,2.3z"/>
			<path class="st171" d="M401.6,2.5c88.2,0,176.4,0,264.7,0c8.7,0,4,23.4-4.6,23.4c-85.1,0-170.2,0-255.4,0
				C397.5,26,392.8,2.5,401.6,2.5L401.6,2.5z"/>
			<path class="st171" d="M401.9,2.8c88,0,176,0,263.9,0c8.6,0,4.1,22.8-4.4,22.8c-85,0-170,0-255.1,0
				C397.8,25.6,393.3,2.8,401.9,2.8L401.9,2.8z"/>
			<path class="st172" d="M402.3,3C490,3,577.8,3,665.5,3c8.4,0,4.2,22.2-4.2,22.2c-84.9,0-169.8,0-254.8,0
				C398,25.2,393.8,3,402.3,3L402.3,3z"/>
			<path class="st172" d="M402.7,3.2c87.5,0,175,0,262.5,0c8.3,0,4.3,21.5-4,21.5c-84.8,0-169.6,0-254.5,0
				C398.3,24.8,394.3,3.2,402.7,3.2z"/>
			<path class="st172" d="M403,3.4c87.3,0,174.5,0,261.8,0c8.2,0,4.4,20.9-3.8,20.9c-84.7,0-169.4,0-254.2,0
				C398.6,24.3,394.8,3.4,403,3.4z"/>
			<path class="st172" d="M403.4,3.7c87,0,174,0,261,0c8.1,0,4.5,20.3-3.6,20.3c-84.6,0-169.2,0-253.9,0
				C398.8,23.9,395.3,3.7,403.4,3.7L403.4,3.7z"/>
			<path class="st173" d="M403.8,3.9c86.8,0,173.5,0,260.3,0c7.9,0,4.6,19.6-3.4,19.6c-84.5,0-169,0-253.6,0
				C399.1,23.5,395.7,3.9,403.8,3.9L403.8,3.9z"/>
			<path class="st173" d="M404.1,4.1c86.5,0,173.1,0,259.6,0c7.8,0,4.7,19-3.2,19c-84.4,0-168.8,0-253.3,0
				C399.4,23.1,396.2,4.1,404.1,4.1z"/>
			<path class="st173" d="M404.5,4.3c86.3,0,172.6,0,258.9,0c7.7,0,4.8,18.4-2.9,18.4c-84.3,0-168.6,0-253,0
				C399.7,22.7,396.7,4.3,404.5,4.3L404.5,4.3z"/>
			<path class="st173" d="M404.8,4.6c86,0,172.1,0,258.1,0c7.6,0,4.8,17.7-2.7,17.7c-84.2,0-168.4,0-252.7,0
				C399.9,22.3,397.2,4.6,404.8,4.6z"/>
			<path class="st174" d="M405.2,4.8c85.8,0,171.6,0,257.4,0c7.5,0,4.9,17.1-2.5,17.1c-84.1,0-168.2,0-252.4,0
				C400.2,21.9,397.7,4.8,405.2,4.8L405.2,4.8z"/>
			<path class="st174" d="M405.6,5c85.6,0,171.1,0,256.7,0c7.3,0,5,16.5-2.3,16.5c-84,0-168,0-252.1,0C400.5,21.5,398.2,5,405.6,5
				L405.6,5z"/>
			<path class="st174" d="M405.9,5.2c85.3,0,170.6,0,255.9,0c7.2,0,5.1,15.8-2.1,15.8c-83.9,0-167.8,0-251.8,0
				C400.8,21.1,398.7,5.2,405.9,5.2L405.9,5.2z"/>
			<path class="st174" d="M406.3,5.5c85.1,0,170.1,0,255.2,0c7.1,0,5.2,15.2-1.9,15.2c-83.8,0-167.6,0-251.5,0
				C401,20.6,399.2,5.5,406.3,5.5L406.3,5.5z"/>
			<path class="st175" d="M406.7,5.7c84.8,0,169.7,0,254.5,0c7,0,5.3,14.5-1.7,14.5c-83.7,0-167.4,0-251.2,0
				C401.3,20.2,399.6,5.7,406.7,5.7L406.7,5.7z"/>
			<path class="st175" d="M407,5.9c84.6,0,169.2,0,253.8,0c6.8,0,5.4,13.9-1.5,13.9c-83.6,0-167.2,0-250.9,0
				C401.6,19.8,400.1,5.9,407,5.9L407,5.9z"/>
			<path class="st175" d="M407.4,6.1c84.3,0,168.7,0,253,0c6.7,0,5.5,13.3-1.2,13.3c-83.5,0-167,0-250.5,0
				C401.9,19.4,400.6,6.1,407.4,6.1L407.4,6.1z"/>
			<path class="st175" d="M407.7,6.4c84.1,0,168.2,0,252.3,0c6.6,0,5.6,12.6-1,12.6c-83.4,0-166.8,0-250.3,0
				C402.1,19,401.1,6.4,407.7,6.4z"/>
			<path class="st176" d="M408.1,6.6c83.9,0,167.7,0,251.6,0c6.5,0,5.6,12-0.8,12c-83.3,0-166.6,0-249.9,0
				C402.4,18.6,401.6,6.6,408.1,6.6L408.1,6.6z"/>
			<path class="st176" d="M408.5,6.8c83.6,0,167.2,0,250.9,0c6.4,0,5.7,11.4-0.6,11.4c-83.2,0-166.4,0-249.6,0
				C402.7,18.2,402.1,6.8,408.5,6.8L408.5,6.8z"/>
			<path class="st176" d="M408.8,7C492.2,7,575.6,7,659,7c6.2,0,5.8,10.7-0.4,10.7c-83.1,0-166.2,0-249.3,0
				C403,17.8,402.6,7,408.8,7L408.8,7z"/>
			<path class="st176" d="M409.2,7.3c83.1,0,166.3,0,249.4,0c6.1,0,5.9,10.1-0.2,10.1c-83,0-166,0-249,0
				C403.2,17.3,403.1,7.3,409.2,7.3L409.2,7.3z"/>
			<path class="st177" d="M409.6,7.5c82.9,0,165.8,0,248.7,0c6,0,6,9.5,0,9.5c-82.9,0-165.8,0-248.7,0
				C403.5,16.9,403.5,7.5,409.6,7.5z"/>
			<path class="st177" d="M409.9,7.7c82.7,0,165.3,0,248,0c5.9,0,6.1,8.8,0.2,8.8c-82.8,0-165.6,0-248.4,0
				C403.8,16.5,404,7.7,409.9,7.7L409.9,7.7z"/>
			<path class="st177" d="M410.3,7.9c82.4,0,164.8,0,247.2,0c5.7,0,6.2,8.2,0.5,8.2c-82.7,0-165.4,0-248.1,0
				C404.1,16.1,404.5,7.9,410.3,7.9L410.3,7.9z"/>
			<path class="st177" d="M410.6,8.1c82.2,0,164.3,0,246.5,0c5.6,0,6.3,7.5,0.7,7.5c-82.6,0-165.2,0-247.8,0
				C404.3,15.7,405,8.1,410.6,8.1L410.6,8.1z"/>
			<path class="st178" d="M411,8.4c81.9,0,163.9,0,245.8,0c5.5,0,6.4,6.9,0.9,6.9c-82.5,0-165,0-247.5,0
				C404.6,15.3,405.5,8.4,411,8.4z"/>
			<path class="st178" d="M411.4,8.6c81.7,0,163.4,0,245.1,0c5.4,0,6.5,6.3,1.1,6.3c-82.4,0-164.8,0-247.2,0
				C404.9,14.9,406,8.6,411.4,8.6L411.4,8.6z"/>
			<path class="st178" d="M411.7,8.8c81.4,0,162.9,0,244.3,0c5.2,0,6.6,5.6,1.3,5.6c-82.3,0-164.6,0-246.9,0
				C405.2,14.5,406.5,8.8,411.7,8.8L411.7,8.8z"/>
			<path class="st178" d="M412.1,9c81.2,0,162.4,0,243.6,0c5.1,0,6.6,5,1.5,5c-82.2,0-164.4,0-246.6,0C405.4,14,406.9,9,412.1,9
				L412.1,9z"/>
			<path class="st179" d="M412.5,9.3c81,0,161.9,0,242.9,0c5,0,6.7,4.4,1.7,4.4c-82.1,0-164.2,0-246.3,0
				C405.7,13.6,407.4,9.3,412.5,9.3L412.5,9.3z"/>
			<path class="st179" d="M412.8,9.5c80.7,0,161.4,0,242.1,0c4.9,0,6.8,3.7,1.9,3.7c-82,0-164,0-246,0C406,13.2,407.9,9.5,412.8,9.5
				z"/>
			<path class="st179" d="M413.2,9.7h241.4c4.8,0,6.9,3.1,2.2,3.1H411C406.2,12.8,408.4,9.7,413.2,9.7L413.2,9.7z"/>
		</g>
	</g>
	<g>
		<g>
			<g>
				<path class="st180" d="M2198.1,560.1c-37.8,0.2-71.5-7.2-101.8-25.8c-59.5-36.7-82.4-91.9-76.5-159.7
					c7.6-86.8,72.3-137.3,151-145.5c32.5-3.4,64.5-1,95.2,10.3c63.1,23.2,98.1,69.1,104.6,135.8c6.7,69.3-21.3,134.7-89.3,167
					C2254.3,554.9,2225.6,560.3,2198.1,560.1z M2136.5,391.8c0,18.6,3.2,31.4,7.9,45.4c7.8,23.3,25.8,35.3,49.6,35.7
					c23.5,0.4,42.5-11.5,51.1-34c11.6-30,11.7-60.6,0.2-90.6c-8.1-21.3-24.6-32.3-47.7-33c-23.6-0.7-42.1,8.7-51.1,30.6
					C2140.6,360.6,2136.5,376.9,2136.5,391.8z"/>
				<path class="st180" d="M907.7,434.9c3.6,1.6,6.9,3.3,10.2,4.6c22.1,8.4,43.7,19.1,66.6,24.4c42.1,9.9,65.6-10.3,65.7-53.8
					c0.2-85.6,0.1-171.3,0.1-256.9c0-3.7,0-7.4,0-11.7c39,0,77.2,0,116.3,0c0.2,3,0.4,6,0.4,9c-0.1,83.5-0.2,166.9-0.4,250.4
					c-0.1,25.8-3.4,51.1-13.6,75.1c-19.7,46.5-56.6,70.7-104.9,79.5c-46.9,8.5-92.1,2.1-135.4-17.6c-2.7-1.2-5.9-5.1-5.9-7.7
					c-0.4-30.6-0.2-61.3-0.2-91.9C906.6,437.5,907.1,436.7,907.7,434.9z"/>
			</g>
			<path class="st180" d="M1444.9,243.6c-0.3,0-0.5,0.1-0.8,0.1c0,5.2,0,8.9,0,12.6c0,49.1,0,98.2,0,147.3
				c0,17.3-3.3,33.6-14.4,47.5c-12.3,15.4-31.4,21-50.7,15.2c-17-5.2-26.3-18.3-27.8-39.2c-0.3-4-0.2-8.1-0.2-12.2
				c0-57.1,0-114.2,0-171.3h-114.4c-0.2,2.9-0.5,4.8-0.5,6.6c0,67.2-0.3,134.5,0.1,201.7c0.3,48.1,28.1,87.5,70.8,101.3
				c39.8,12.9,105.6,7.1,139.4-42.7c0.6-0.9,1.6-1.7,4.2-4.5c0,16,0,29.3,0,42.9c36.3,0,72,0,107.6,0c0-102.1,0-203.3,0-305.4
				H1444.9z"/>
			<path class="st180" d="M1842.6,130.4c0,45,0,89,0,133.3c-13-8.1-24.3-16.8-36.9-22.7c-62.4-29.4-136.3-1.9-166.4,64.5
				c-28.9,63.7-27.3,129.1,5.1,190.9c45.9,87.5,154.9,75.4,197.6,16.5c1.4-2,3.3-3.7,6.6-7.4c0,16.4,0,30,0,43.6
				c36.5,0,72.3,0,107.9,0c0-139.8,0-278.9,0-418.7H1842.6z M1842.2,420.9c-5.6,32.3-28.3,50-58.3,47c-17.5-1.7-30.2-11-36.8-26.7
				c-12.8-30.3-14.1-61.6-1-92.1c12.9-30.2,42.3-40.3,73.5-27c17.9,7.6,22.6,15.6,25.2,19.8c0.7,34.2,0.7,28.6,0.7,34.2
				c0.3,0-0.3,0,0,0C1844.4,391.1,1844.7,406.2,1842.2,420.9z"/>
		</g>
	</g>
</g>
</svg>
